<?xml version="1.0" encoding="UTF-8"?>
<!DOCTYPE svg PUBLIC "-//W3C//DTD SVG 1.1//EN" "http://www.w3.org/Graphics/SVG/1.1/DTD/svg11.dtd">
<!-- Creator: CorelDRAW 2020 (64-Bit) -->
<svg xmlns="http://www.w3.org/2000/svg" xml:space="preserve" width="150px" height="150px" version="1.1" shape-rendering="geometricPrecision" text-rendering="geometricPrecision" image-rendering="optimizeQuality" fill-rule="evenodd" clip-rule="evenodd"
viewBox="0 0 150 150"
 xmlns:xlink="http://www.w3.org/1999/xlink"
 xmlns:xodm="http://www.corel.com/coreldraw/odm/2003">
 <g id="Layer_x0020_1">
  <metadata id="CorelCorpID_0Corel-Layer"/>
  <g id="_1396790064">
   <path fill="white" d="M8.84 41.58c0,-2.91 1.56,-5.61 4.08,-7.07l57.89 -33.42c2.52,-1.45 5.63,-1.45 8.16,0l57.88 33.42c2.53,1.46 4.08,4.16 4.08,7.07l0 66.84c0,2.91 -1.55,5.61 -4.08,7.07l-57.88 33.42c-2.53,1.45 -5.64,1.45 -8.16,0l-57.89 -33.42c-2.52,-1.46 -4.08,-4.16 -4.08,-7.07l0 -66.84z"/>
   <g>
    <path fill="#3C3C3C" d="M17.34 87.25l-1.7 -0.98c-0.84,-0.48 -1.36,-1.38 -1.36,-2.36l0 -17.82c0,-0.98 0.52,-1.88 1.36,-2.36l1.7 -0.98 -1.7 -0.98c-0.84,-0.49 -1.36,-1.39 -1.36,-2.37l0 -17.82c0,-0.97 0.52,-1.87 1.36,-2.36l15.44 -8.91c0.84,-0.49 1.88,-0.49 2.72,0l1.7 0.98 0 -1.96c0,-0.98 0.52,-1.88 1.36,-2.37l15.44 -8.91c0.84,-0.48 1.88,-0.48 2.73,0l1.69 0.98 0 -1.96c0,-0.97 0.52,-1.87 1.37,-2.36l15.43 -8.91c0.85,-0.49 1.89,-0.49 2.73,0l15.44 8.91c0.84,0.49 1.36,1.39 1.36,2.36l0 1.96 1.7 -0.98c0.84,-0.48 1.88,-0.48 2.73,0l15.43 8.91c0.85,0.49 1.37,1.39 1.37,2.37l0 1.96 1.69 -0.98c0.85,-0.49 1.89,-0.49 2.73,0l15.43 8.91c0.85,0.49 1.37,1.39 1.37,2.36l0 17.82c0,0.98 -0.52,1.88 -1.37,2.37l-1.69 0.98 1.69 0.98c0.85,0.48 1.37,1.38 1.37,2.36l0 17.82c0,0.98 -0.52,1.88 -1.37,2.36l-1.69 0.98 1.69 0.98c0.85,0.49 1.37,1.39 1.37,2.37l0 17.82c0,0.97 -0.52,1.87 -1.37,2.36l-15.43 8.91c-0.84,0.49 -1.88,0.49 -2.73,0l-1.69 -0.98 0 1.96c0,0.98 -0.52,1.88 -1.37,2.37l-15.43 8.91c-0.85,0.48 -1.89,0.48 -2.73,0l-1.7 -0.98 0 1.96c0,0.97 -0.52,1.87 -1.36,2.36l-15.44 8.91c-0.84,0.49 -1.88,0.49 -2.73,0l-15.43 -8.91c-0.85,-0.49 -1.37,-1.39 -1.37,-2.36l0 -1.96 -1.69 0.98c-0.85,0.48 -1.89,0.48 -2.73,0l-15.44 -8.91c-0.84,-0.49 -1.36,-1.39 -1.36,-2.37l0 -1.96 -1.7 0.98c-0.84,0.49 -1.88,0.49 -2.72,0l-15.44 -8.91c-0.84,-0.49 -1.36,-1.39 -1.36,-2.36l0 -17.82c0,-0.98 0.52,-1.88 1.36,-2.37l1.7 -0.98z"/>
    <path id="1" fill="black" d="M17.34 87.25l-1.7 -0.98c-0.84,-0.48 -1.36,-1.38 -1.36,-2.36l0 -17.82c0,-0.98 0.52,-1.88 1.36,-2.36l1.7 -0.98 -1.7 -0.98c-0.84,-0.49 -1.36,-1.39 -1.36,-2.37l0 -17.82c0,-0.97 0.52,-1.87 1.36,-2.36l15.44 -8.91c0.84,-0.49 1.88,-0.49 2.72,0l1.7 0.98 0 -1.96c0,-0.98 0.52,-1.88 1.36,-2.37l15.44 -8.91c0.84,-0.48 1.88,-0.48 2.73,0l1.69 0.98 0 -1.96c0,-0.97 0.52,-1.87 1.37,-2.36l15.43 -8.91c0.85,-0.49 1.89,-0.49 2.73,0l15.44 8.91c0.84,0.49 1.36,1.39 1.36,2.36l0 1.96 1.7 -0.98c0.84,-0.48 1.88,-0.48 2.73,0l15.43 8.91c0.85,0.49 1.37,1.39 1.37,2.37l0 1.96 1.69 -0.98c0.85,-0.49 1.89,-0.49 2.73,0l15.43 8.91c0.85,0.49 1.37,1.39 1.37,2.36l0 17.82c0,0.98 -0.52,1.88 -1.37,2.37l-1.69 0.98 1.69 0.98c0.85,0.48 1.37,1.38 1.37,2.36l0 17.82c0,0.98 -0.52,1.88 -1.37,2.36l-1.69 0.98 1.69 0.98c0.85,0.49 1.37,1.39 1.37,2.37l0 17.82c0,0.97 -0.52,1.87 -1.37,2.36l-15.43 8.91c-0.84,0.49 -1.88,0.49 -2.73,0l-1.69 -0.98 0 1.96c0,0.98 -0.52,1.88 -1.37,2.37l-15.43 8.91c-0.85,0.48 -1.89,0.48 -2.73,0l-1.7 -0.98 0 1.96c0,0.97 -0.52,1.87 -1.36,2.36l-15.44 8.91c-0.84,0.49 -1.88,0.49 -2.73,0l-15.43 -8.91c-0.85,-0.49 -1.37,-1.39 -1.37,-2.36l0 -1.96 -1.69 0.98c-0.85,0.48 -1.89,0.48 -2.73,0l-15.44 -8.91c-0.84,-0.49 -1.36,-1.39 -1.36,-2.37l0 -1.96 -1.7 0.98c-0.84,0.49 -1.88,0.49 -2.72,0l-15.44 -8.91c-0.84,-0.49 -1.36,-1.39 -1.36,-2.36l0 -17.82c0,-0.98 0.52,-1.88 1.36,-2.37l1.7 -0.98zm-3.28 0c-0.36,-0.32 -0.67,-0.69 -0.91,-1.11 -0.39,-0.67 -0.6,-1.44 -0.6,-2.23l0 -17.82c0,-0.79 0.21,-1.56 0.6,-2.23 0.24,-0.42 0.54,-0.79 0.91,-1.11 -0.37,-0.33 -0.67,-0.7 -0.91,-1.12 -0.39,-0.67 -0.6,-1.43 -0.6,-2.23l0 -17.82c0,-0.79 0.21,-1.56 0.6,-2.23 0.38,-0.66 0.93,-1.22 1.63,-1.62l0 -0.01 15.43 -8.91c0.7,-0.4 1.47,-0.6 2.23,-0.6 0.48,0 0.96,0.08 1.42,0.24 0.1,-0.47 0.27,-0.93 0.51,-1.34 0.39,-0.68 0.94,-1.24 1.63,-1.64 0.03,-0.02 0.06,-0.04 0.1,-0.05l15.34 -8.86 -0.01 0c0.7,-0.4 1.47,-0.6 2.23,-0.6 0.48,0 0.96,0.08 1.42,0.23 0.1,-0.47 0.27,-0.92 0.52,-1.34 0.38,-0.67 0.94,-1.24 1.62,-1.63l15.44 -8.91c0.69,-0.41 1.46,-0.61 2.23,-0.61 0.76,0 1.53,0.2 2.22,0.61 0,0 0,0 0.01,0l0 0 15.43 8.91c0.69,0.39 1.24,0.96 1.63,1.63 0.24,0.42 0.41,0.87 0.51,1.34 0.46,-0.15 0.94,-0.23 1.42,-0.23 0.77,0 1.54,0.2 2.23,0.6 0.03,0.02 0.06,0.04 0.09,0.05l15.34 8.86c0,0 0,0 0.01,0l0 0c0.68,0.4 1.24,0.96 1.62,1.64 0.25,0.41 0.42,0.87 0.52,1.34 0.46,-0.16 0.94,-0.24 1.42,-0.24 0.76,0 1.53,0.2 2.22,0.6l15.44 8.91c0.04,0.03 0.08,0.05 0.12,0.08 0.63,0.39 1.15,0.93 1.51,1.56 0.39,0.67 0.6,1.44 0.6,2.22l0 17.82c0,0.79 -0.21,1.56 -0.6,2.23 -0.24,0.42 -0.55,0.79 -0.92,1.12 0.37,0.32 0.68,0.7 0.92,1.12 0.39,0.67 0.6,1.43 0.6,2.22l0 17.82c0,0.79 -0.21,1.55 -0.6,2.22 -0.24,0.42 -0.55,0.8 -0.92,1.12 0.37,0.32 0.68,0.7 0.92,1.12 0.39,0.67 0.6,1.44 0.6,2.23l0 17.82c0,0.78 -0.21,1.55 -0.6,2.22 -0.39,0.67 -0.94,1.23 -1.63,1.63l0 0.01 -15.44 8.91c-0.69,0.4 -1.46,0.6 -2.22,0.6 -0.48,0 -0.96,-0.08 -1.42,-0.24 -0.1,0.47 -0.27,0.93 -0.52,1.34 -0.38,0.68 -0.94,1.24 -1.62,1.64l-15.44 8.91c-0.69,0.4 -1.46,0.6 -2.23,0.6 -0.47,0 -0.95,-0.08 -1.42,-0.23 -0.09,0.47 -0.27,0.92 -0.51,1.34 -0.39,0.67 -0.94,1.24 -1.63,1.63l-15.43 8.91c-0.04,0.03 -0.08,0.05 -0.13,0.07 -0.66,0.36 -1.38,0.54 -2.1,0.54 -0.77,0 -1.54,-0.2 -2.23,-0.61l-15.44 -8.91c-0.68,-0.39 -1.24,-0.96 -1.62,-1.63 -0.25,-0.42 -0.42,-0.87 -0.52,-1.34 -0.46,0.15 -0.94,0.23 -1.42,0.23 -0.76,0 -1.53,-0.2 -2.23,-0.6l-15.43 -8.91c-0.68,-0.4 -1.24,-0.96 -1.63,-1.64 -0.24,-0.41 -0.41,-0.87 -0.51,-1.34 -0.46,0.16 -0.94,0.24 -1.42,0.24 -0.76,0 -1.53,-0.2 -2.23,-0.6l-15.43 -8.91c-0.04,-0.03 -0.08,-0.05 -0.12,-0.08 -0.64,-0.39 -1.15,-0.93 -1.51,-1.55 -0.39,-0.67 -0.6,-1.44 -0.6,-2.23l0 -17.82c0,-0.8 0.21,-1.56 0.6,-2.23 0.02,-0.04 0.05,-0.08 0.07,-0.12 0.23,-0.37 0.51,-0.71 0.84,-1z"/>
   </g>
   <g>
    <path fill="#19C84B" d="M76.07 78.14l0 14.71c0,1.25 0.85,1.88 2,1.29l13.62 -7.87c0.84,-0.48 1.36,-1.38 1.36,-2.36l0 -15.58c0,-1.35 -0.95,-1.9 -2.12,-1.22l-12.74 7.35c-1.17,0.68 -2.12,2.32 -2.12,3.68z"/>
    <path id="1" fill="#80FF00" d="M79.65 78.14l0 10.97 9.82 -5.68 0 -11.37 -9.5 5.49c-0.03,0.01 -0.1,0.12 -0.19,0.28 -0.08,0.15 -0.13,0.26 -0.13,0.31zm-3.58 0l0 14.71c0,1.25 0.85,1.88 2,1.29l13.62 -7.87c0.84,-0.48 1.36,-1.38 1.36,-2.36l0 -15.58c0,-1.35 -0.95,-1.9 -2.12,-1.22l-12.74 7.35c-1.17,0.68 -2.12,2.32 -2.12,3.68z"/>
   </g>
   <path fill="black" d="M35.5 71.66c0,0.97 0.52,1.87 1.36,2.36l15.44 8.91c0.84,0.49 1.88,0.49 2.73,0 0.36,-0.21 0.56,-0.66 0.56,-1.25l0 -16.24c0,-0.98 0.52,-1.88 1.37,-2.37l14.07 -8.12c0.51,-0.3 0.8,-0.7 0.8,-1.12 0,-0.97 -0.52,-1.87 -1.37,-2.36l-15.43 -8.91c-0.85,-0.49 -1.89,-0.49 -2.73,0l-15.44 8.91c-0.84,0.49 -1.36,1.39 -1.36,2.36l0 17.83zm0.8 3.34c-1.19,-0.69 -1.93,-1.96 -1.93,-3.34l-0.57 0.32c-0.84,0.49 -1.88,0.49 -2.72,0l-14.08 -8.12c-0.51,-0.3 -1,-0.34 -1.36,-0.13l1.7 -0.98 13.74 7.93c0.84,0.49 1.88,0.49 2.72,0 0.37,-0.21 0.57,-0.66 0.57,-1.25l0 -16.25c0,-0.97 0.52,-1.87 1.36,-2.36l14.08 -8.12c0.51,-0.3 0.79,-0.7 0.79,-1.12 0,-0.97 -0.52,-1.87 -1.36,-2.36l-13.74 -7.93 0 -1.96c0,0.42 0.29,0.82 0.8,1.11l14.07 8.13c0.84,0.48 1.36,1.38 1.36,2.36l0 0.65c1.2,-0.69 2.67,-0.69 3.86,0l0 -0.65c0,-0.98 0.52,-1.88 1.37,-2.36l14.07 -8.13c0.51,-0.29 0.8,-0.69 0.8,-1.11 0,-0.98 -0.52,-1.88 -1.37,-2.37l-13.74 -7.93 0 -1.96c0,0.42 0.29,0.82 0.8,1.12l14.07 8.12c0.85,0.49 1.37,1.39 1.37,2.37l0 0.65c1.19,-0.69 2.66,-0.69 3.86,0l0 -0.65c0,-0.98 0.52,-1.88 1.36,-2.37l14.07 -8.12c0.51,-0.3 0.8,-0.7 0.8,-1.12l0 1.96 -13.74 7.93c-0.84,0.49 -1.36,1.39 -1.36,2.37 0,0.42 0.29,0.82 0.8,1.11l14.07 8.13c0.84,0.48 1.36,1.38 1.36,2.36l0 0.65c1.2,-0.69 2.67,-0.69 3.86,0l0 -0.65c0,-0.98 0.52,-1.88 1.37,-2.36l14.07 -8.13c0.51,-0.29 0.8,-0.69 0.8,-1.11l0 1.96 -13.74 7.93c-0.85,0.49 -1.37,1.39 -1.37,2.36 0,0.42 0.29,0.82 0.8,1.12l14.07 8.12c0.85,0.49 1.37,1.39 1.37,2.36l0 16.25c0,0.59 0.2,1.04 0.56,1.25 0.85,0.49 1.89,0.49 2.73,0l13.74 -7.93 1.69 0.98c-0.36,-0.21 -0.85,-0.17 -1.36,0.13l-14.07 8.12c-0.84,0.49 -1.88,0.49 -2.73,0l-0.56 -0.32c0,1.38 -0.74,2.65 -1.93,3.34l0.56 0.33c0.85,0.48 1.37,1.38 1.37,2.36l0 16.25c0,0.59 0.2,1.04 0.56,1.25 0.85,0.48 1.89,0.48 2.73,0l13.74 -7.94 1.69 0.98c-0.36,-0.21 -0.85,-0.16 -1.36,0.14l-14.07 8.12c-0.84,0.49 -1.88,0.49 -2.73,0l-0.56 -0.32c0,1.37 -0.74,2.65 -1.93,3.34l0.56 0.32c0.85,0.49 1.37,1.39 1.37,2.37l0 16.24c0,0.59 0.2,1.04 0.56,1.25l-1.69 -0.98 0 -15.86c0,-0.98 -0.52,-1.88 -1.37,-2.36 -0.36,-0.21 -0.85,-0.16 -1.36,0.13l-14.07 8.12c-0.85,0.49 -1.89,0.49 -2.73,0l-0.57 -0.32c0,1.38 -0.73,2.65 -1.93,3.34l0.57 0.33c0.84,0.48 1.36,1.38 1.36,2.36l0 16.25c0,0.59 0.21,1.04 0.57,1.25l-1.7 -0.98 0 -15.87c0,-0.97 -0.52,-1.87 -1.36,-2.36 -0.36,-0.21 -0.86,-0.16 -1.37,0.13l-14.07 8.13c-0.84,0.49 -1.88,0.49 -2.73,0l-14.07 -8.13c-0.51,-0.29 -1,-0.34 -1.36,-0.13 -0.85,0.49 -1.37,1.39 -1.37,2.36l0 15.87 -1.69 0.98c0.36,-0.21 0.56,-0.66 0.56,-1.25l0 -16.25c0,-0.98 0.52,-1.88 1.37,-2.36l0.56 -0.33c-1.19,-0.69 -1.93,-1.96 -1.93,-3.34l-0.56 0.32c-0.85,0.49 -1.89,0.49 -2.73,0l-14.07 -8.12c-0.51,-0.29 -1,-0.34 -1.37,-0.13 -0.84,0.48 -1.36,1.38 -1.36,2.36l0 15.86 -1.7 0.98c0.37,-0.21 0.57,-0.66 0.57,-1.25l0 -16.24c0,-0.98 0.52,-1.88 1.36,-2.37l0.57 -0.32c-1.19,-0.69 -1.93,-1.97 -1.93,-3.34l-0.57 0.32c-0.84,0.49 -1.88,0.49 -2.72,0l-14.08 -8.12c-0.51,-0.3 -1,-0.35 -1.36,-0.14l1.7 -0.98 13.74 7.94c0.84,0.48 1.88,0.48 2.72,0 0.37,-0.21 0.57,-0.66 0.57,-1.25l0 -16.25c0,-0.98 0.52,-1.88 1.36,-2.36l0.57 -0.33zm21.79 -35.78c-0.85,0.49 -1.37,1.39 -1.37,2.36 0,0.42 0.29,0.82 0.8,1.12l14.07 8.12c0.85,0.49 1.37,1.39 1.37,2.36l0 0.65c1.19,-0.68 2.66,-0.68 3.86,0l0 -0.65c0,-0.97 0.52,-1.87 1.36,-2.36l14.07 -8.12c0.51,-0.3 0.8,-0.7 0.8,-1.12 0,-0.97 -0.52,-1.87 -1.36,-2.36l-15.44 -8.91c-0.84,-0.49 -1.88,-0.49 -2.73,0l-15.43 8.91zm-0.57 48.03c-1.19,-0.69 -1.93,-1.96 -1.93,-3.34l-0.56 0.33c-0.85,0.49 -1.89,0.49 -2.73,0l-14.07 -8.13c-0.51,-0.29 -1,-0.34 -1.37,-0.13 -0.84,0.49 -1.36,1.39 -1.36,2.36l0 17.83c0,0.97 0.52,1.87 1.36,2.36l15.44 8.91c0.84,0.49 1.88,0.49 2.73,0 0.36,-0.21 0.56,-0.66 0.56,-1.25l0 -16.25c0,-0.97 0.52,-1.87 1.37,-2.36l0.56 -0.33zm16 7.94c0.85,0.48 1.89,0.48 2.73,0l15.44 -8.92c0.84,-0.48 1.36,-1.38 1.36,-2.36l0 -17.82c0,-0.98 -0.52,-1.88 -1.36,-2.36l-15.44 -8.92c-0.84,-0.48 -1.88,-0.48 -2.73,0l-15.43 8.92c-0.85,0.48 -1.37,1.38 -1.37,2.36l0 17.82c0,0.98 0.52,1.88 1.37,2.36l15.43 8.92zm0 24.5c0.85,0.49 1.89,0.49 2.73,0l15.44 -8.91c0.84,-0.49 1.36,-1.39 1.36,-2.36l0 -17.82c0,-0.98 -0.52,-1.88 -1.36,-2.37 -0.36,-0.21 -0.86,-0.16 -1.37,0.14l-14.07 8.12c-0.84,0.49 -1.88,0.49 -2.73,0l-14.07 -8.12c-0.51,-0.3 -1,-0.35 -1.36,-0.14 -0.85,0.49 -1.37,1.39 -1.37,2.37l0 17.82c0,0.97 0.52,1.87 1.37,2.36l15.43 8.91zm18.73 -32.44l0.57 0.33c0.84,0.49 1.36,1.39 1.36,2.36l0 16.25c0,0.59 0.21,1.04 0.57,1.25 0.84,0.49 1.88,0.49 2.73,0l15.43 -8.91c0.85,-0.49 1.37,-1.39 1.37,-2.36l0 -17.83c0,-0.97 -0.52,-1.87 -1.37,-2.36 -0.36,-0.21 -0.85,-0.16 -1.36,0.13l-14.07 8.13c-0.85,0.49 -1.89,0.49 -2.73,0l-0.57 -0.33c0,1.38 -0.73,2.65 -1.93,3.34zm-13.5 -32.3l14.07 8.12c0.84,0.49 1.36,1.39 1.36,2.37l0 16.24c0,0.59 0.21,1.04 0.57,1.25 0.84,0.49 1.88,0.49 2.73,0l15.43 -8.91c0.85,-0.49 1.37,-1.39 1.37,-2.36l0 -17.83c0,-0.97 -0.52,-1.87 -1.37,-2.36l-15.43 -8.91c-0.85,-0.49 -1.89,-0.49 -2.73,0l-15.44 8.91c-0.84,0.49 -1.36,1.39 -1.36,2.36 0,0.42 0.29,0.82 0.8,1.12z"/>
   <g>
    <path fill="#19C84B" d="M76.07 102.64l0 14.71c0,1.26 0.85,1.88 2,1.29l13.62 -7.86c0.84,-0.49 1.36,-1.39 1.36,-2.36l0 -15.58c0,-1.35 -0.95,-1.9 -2.12,-1.23l-12.74 7.36c-1.17,0.67 -2.12,2.32 -2.12,3.67z"/>
    <path id="1" fill="#80FF00" d="M79.65 102.64l0 10.97 9.82 -5.67 0 -11.38 -9.5 5.5c-0.03,0.01 -0.1,0.12 -0.19,0.28 -0.08,0.14 -0.13,0.26 -0.13,0.3zm-3.58 0l0 14.71c0,1.26 0.85,1.88 2,1.29l13.62 -7.86c0.84,-0.49 1.36,-1.39 1.36,-2.36l0 -15.58c0,-1.35 -0.95,-1.9 -2.12,-1.23l-12.74 7.36c-1.17,0.67 -2.12,2.32 -2.12,3.67z"/>
   </g>
   <g>
    <path fill="#19C84B" d="M76.07 127.15l0 14.71c0,1.26 0.85,1.88 2,1.29l13.62 -7.86c0.84,-0.49 1.36,-1.39 1.36,-2.36l0 -15.58c0,-1.36 -0.95,-1.91 -2.12,-1.23l-12.74 7.35c-1.17,0.68 -2.12,2.33 -2.12,3.68z"/>
    <path id="1" fill="#80FF00" d="M79.65 127.15l0 10.97 9.82 -5.67 0 -11.38 -9.5 5.49c-0.03,0.01 -0.1,0.12 -0.19,0.29 -0.08,0.14 -0.13,0.25 -0.13,0.3zm-3.58 0l0 14.71c0,1.26 0.85,1.88 2,1.29l13.62 -7.86c0.84,-0.49 1.36,-1.39 1.36,-2.36l0 -15.58c0,-1.36 -0.95,-1.91 -2.12,-1.23l-12.74 7.35c-1.17,0.68 -2.12,2.33 -2.12,3.68z"/>
   </g>
   <path fill="white" d="M97.29 114.9l0 14.71c0,1.25 0.85,1.88 2,1.29l13.62 -7.86c0.85,-0.49 1.37,-1.39 1.37,-2.37l0 -15.58c0,-1.35 -0.96,-1.9 -2.13,-1.22l-12.74 7.35c-1.17,0.68 -2.12,2.33 -2.12,3.68z"/>
   <g>
    <path fill="#19C84B" d="M97.29 65.88l0 14.71c0,1.26 0.85,1.88 2,1.29l13.62 -7.86c0.85,-0.49 1.37,-1.39 1.37,-2.36l0 -15.58c0,-1.35 -0.96,-1.9 -2.13,-1.23l-12.74 7.36c-1.17,0.67 -2.12,2.32 -2.12,3.67z"/>
    <path id="1" fill="#80FF00" d="M100.87 65.88l0 10.97 9.83 -5.67 0 -11.38 -9.51 5.49c-0.02,0.02 -0.09,0.13 -0.19,0.29 -0.08,0.14 -0.13,0.26 -0.13,0.3zm-3.58 0l0 14.71c0,1.26 0.85,1.88 2,1.29l13.62 -7.86c0.85,-0.49 1.37,-1.39 1.37,-2.36l0 -15.58c0,-1.35 -0.96,-1.9 -2.13,-1.23l-12.74 7.36c-1.17,0.67 -2.12,2.32 -2.12,3.67z"/>
   </g>
   <g>
    <path fill="#19C84B" d="M97.29 90.39l0 14.71c0,1.26 0.85,1.88 2,1.29l13.62 -7.86c0.85,-0.49 1.37,-1.39 1.37,-2.36l0 -15.58c0,-1.36 -0.96,-1.91 -2.13,-1.23l-12.74 7.35c-1.17,0.68 -2.12,2.33 -2.12,3.68z"/>
    <path id="1" fill="#80FF00" d="M100.87 90.39l0 10.97 9.83 -5.67 0 -11.38 -9.51 5.49c-0.02,0.01 -0.09,0.12 -0.19,0.29 -0.08,0.14 -0.13,0.25 -0.13,0.3zm-3.58 0l0 14.71c0,1.26 0.85,1.88 2,1.29l13.62 -7.86c0.85,-0.49 1.37,-1.39 1.37,-2.36l0 -15.58c0,-1.36 -0.96,-1.91 -2.13,-1.23l-12.74 7.35c-1.17,0.68 -2.12,2.33 -2.12,3.68z"/>
   </g>
   <g>
    <path fill="#19C84B" d="M118.52 53.63l0 14.71c0,1.26 0.84,1.88 2,1.29l13.61 -7.86c0.85,-0.49 1.37,-1.39 1.37,-2.37l0 -15.57c0,-1.36 -0.95,-1.91 -2.12,-1.23l-12.74 7.35c-1.17,0.68 -2.12,2.33 -2.12,3.68z"/>
    <path id="1" fill="#80FF00" d="M122.09 53.63l0 10.97 9.83 -5.68 0 -11.37 -9.51 5.49c-0.02,0.01 -0.09,0.12 -0.18,0.29 -0.09,0.14 -0.14,0.25 -0.14,0.3zm-3.57 0l0 14.71c0,1.26 0.84,1.88 2,1.29l13.61 -7.86c0.85,-0.49 1.37,-1.39 1.37,-2.37l0 -15.57c0,-1.36 -0.95,-1.91 -2.12,-1.23l-12.74 7.35c-1.17,0.68 -2.12,2.33 -2.12,3.68z"/>
   </g>
   <g>
    <path fill="#19C84B" d="M118.52 78.14l0 14.71c0,1.25 0.84,1.88 2,1.29l13.61 -7.87c0.85,-0.48 1.37,-1.38 1.37,-2.36l0 -15.58c0,-1.35 -0.95,-1.9 -2.12,-1.22l-12.74 7.35c-1.17,0.68 -2.12,2.32 -2.12,3.68z"/>
    <path id="1" fill="#80FF00" d="M122.09 78.14l0 10.97 9.83 -5.68 0 -11.37 -9.51 5.49c-0.02,0.01 -0.09,0.12 -0.18,0.28 -0.09,0.15 -0.14,0.26 -0.14,0.31zm-3.57 0l0 14.71c0,1.25 0.84,1.88 2,1.29l13.61 -7.87c0.85,-0.48 1.37,-1.38 1.37,-2.36l0 -15.58c0,-1.35 -0.95,-1.9 -2.12,-1.22l-12.74 7.35c-1.17,0.68 -2.12,2.32 -2.12,3.68z"/>
   </g>
   <g>
    <path fill="#19C84B" d="M118.52 102.64l0 14.71c0,1.26 0.84,1.88 2,1.29l13.61 -7.86c0.85,-0.49 1.37,-1.39 1.37,-2.36l0 -15.58c0,-1.35 -0.95,-1.9 -2.12,-1.23l-12.74 7.36c-1.17,0.67 -2.12,2.32 -2.12,3.67z"/>
    <path id="1" fill="#80FF00" d="M122.09 102.64l0 10.97 9.83 -5.67 0 -11.38 -9.51 5.5c-0.02,0.01 -0.09,0.12 -0.18,0.28 -0.09,0.14 -0.14,0.26 -0.14,0.3zm-3.57 0l0 14.71c0,1.26 0.84,1.88 2,1.29l13.61 -7.86c0.85,-0.49 1.37,-1.39 1.37,-2.36l0 -15.58c0,-1.35 -0.95,-1.9 -2.12,-1.23l-12.74 7.36c-1.17,0.67 -2.12,2.32 -2.12,3.67z"/>
   </g>
   <g>
    <path fill="#FF3232" d="M73.71 78.14l0 14.71c0,1.25 -0.85,1.88 -2,1.29l-13.62 -7.87c-0.85,-0.48 -1.37,-1.38 -1.37,-2.36l0 -15.58c0,-1.35 0.96,-1.9 2.13,-1.22l12.73 7.35c1.18,0.68 2.13,2.32 2.13,3.68z"/>
    <path id="1" fill="#FF6464" d="M73.71 78.14l0 14.71c0,1.25 -0.85,1.88 -2,1.29l-13.62 -7.87c-0.85,-0.48 -1.37,-1.38 -1.37,-2.36l0 -15.58c0,-1.35 0.96,-1.9 2.13,-1.22l12.73 7.35c1.18,0.68 2.13,2.32 2.13,3.68zm-3.58 10.97l0 -10.97c0,-0.05 -0.05,-0.16 -0.13,-0.31 -0.1,-0.16 -0.17,-0.27 -0.19,-0.28l-9.51 -5.49 0 11.37 9.83 5.68z"/>
   </g>
   <g>
    <path fill="#FF3232" d="M52.48 65.88l0 14.71c0,1.26 -0.84,1.88 -2,1.29l-13.62 -7.86c-0.84,-0.49 -1.36,-1.39 -1.36,-2.36l0 -15.58c0,-1.35 0.95,-1.9 2.12,-1.23l12.74 7.36c1.17,0.67 2.12,2.32 2.12,3.67z"/>
    <path id="1" fill="#FF6464" d="M52.48 65.88l0 14.71c0,1.26 -0.84,1.88 -2,1.29l-13.62 -7.86c-0.84,-0.49 -1.36,-1.39 -1.36,-2.36l0 -15.58c0,-1.35 0.95,-1.9 2.12,-1.23l12.74 7.36c1.17,0.67 2.12,2.32 2.12,3.67zm-3.57 10.97l0 -10.97c0,-0.04 -0.05,-0.16 -0.14,-0.3 -0.09,-0.16 -0.16,-0.27 -0.18,-0.29l-9.51 -5.49 0 11.38 9.83 5.67z"/>
   </g>
   <g>
    <path fill="#FF3232" d="M31.26 53.63l0 14.71c0,1.26 -0.85,1.88 -2,1.29l-13.62 -7.86c-0.84,-0.49 -1.36,-1.39 -1.36,-2.37l0 -15.57c0,-1.36 0.95,-1.91 2.12,-1.23l12.74 7.35c1.17,0.68 2.12,2.33 2.12,3.68z"/>
    <path id="1" fill="#FF6464" d="M31.26 53.63l0 14.71c0,1.26 -0.85,1.88 -2,1.29l-13.62 -7.86c-0.84,-0.49 -1.36,-1.39 -1.36,-2.37l0 -15.57c0,-1.36 0.95,-1.91 2.12,-1.23l12.74 7.35c1.17,0.68 2.12,2.33 2.12,3.68zm-3.58 10.97l0 -10.97c0,-0.05 -0.05,-0.16 -0.13,-0.3 -0.09,-0.17 -0.16,-0.28 -0.19,-0.29l-9.51 -5.49 0 11.37 9.83 5.68z"/>
   </g>
   <g>
    <path fill="#FF3232" d="M52.48 90.39l0 14.71c0,1.26 -0.84,1.88 -2,1.29l-13.62 -7.86c-0.84,-0.49 -1.36,-1.39 -1.36,-2.36l0 -15.58c0,-1.36 0.95,-1.91 2.12,-1.23l12.74 7.35c1.17,0.68 2.12,2.33 2.12,3.68z"/>
    <path id="1" fill="#FF6464" d="M52.48 90.39l0 14.71c0,1.26 -0.84,1.88 -2,1.29l-13.62 -7.86c-0.84,-0.49 -1.36,-1.39 -1.36,-2.36l0 -15.58c0,-1.36 0.95,-1.91 2.12,-1.23l12.74 7.35c1.17,0.68 2.12,2.33 2.12,3.68zm-3.57 10.97l0 -10.97c0,-0.05 -0.05,-0.16 -0.14,-0.3 -0.09,-0.17 -0.16,-0.28 -0.18,-0.29l-9.51 -5.49 0 11.38 9.83 5.67z"/>
   </g>
   <g>
    <path fill="#FF3232" d="M52.48 114.9l0 14.71c0,1.25 -0.84,1.88 -2,1.29l-13.62 -7.86c-0.84,-0.49 -1.36,-1.39 -1.36,-2.37l0 -15.58c0,-1.35 0.95,-1.9 2.12,-1.22l12.74 7.35c1.17,0.68 2.12,2.33 2.12,3.68z"/>
    <path id="1" fill="#FF6464" d="M52.48 114.9l0 14.71c0,1.25 -0.84,1.88 -2,1.29l-13.62 -7.86c-0.84,-0.49 -1.36,-1.39 -1.36,-2.37l0 -15.58c0,-1.35 0.95,-1.9 2.12,-1.22l12.74 7.35c1.17,0.68 2.12,2.33 2.12,3.68zm-3.57 10.97l0 -10.97c0,-0.05 -0.05,-0.16 -0.14,-0.31 -0.09,-0.16 -0.16,-0.27 -0.18,-0.28l-9.51 -5.49 0 11.37 9.83 5.68z"/>
   </g>
   <path fill="white" d="M31.26 78.14l0 14.71c0,1.25 -0.85,1.88 -2,1.29l-13.62 -7.87c-0.84,-0.48 -1.36,-1.38 -1.36,-2.36l0 -15.58c0,-1.35 0.95,-1.9 2.12,-1.22l12.74 7.35c1.17,0.68 2.12,2.32 2.12,3.68z"/>
   <path fill="white" d="M31.26 102.64l0 14.71c0,1.26 -0.85,1.88 -2,1.29l-13.62 -7.86c-0.84,-0.49 -1.36,-1.39 -1.36,-2.36l0 -15.58c0,-1.35 0.95,-1.9 2.12,-1.23l12.74 7.36c1.17,0.67 2.12,2.32 2.12,3.67z"/>
   <path fill="white" d="M73.71 102.64l0 14.71c0,1.26 -0.85,1.88 -2,1.29l-13.62 -7.86c-0.85,-0.49 -1.37,-1.39 -1.37,-2.36l0 -15.58c0,-1.35 0.96,-1.9 2.13,-1.23l12.73 7.36c1.18,0.67 2.13,2.32 2.13,3.67z"/>
   <path fill="white" d="M73.71 127.15l0 14.71c0,1.26 -0.85,1.88 -2,1.29l-13.62 -7.86c-0.85,-0.49 -1.37,-1.39 -1.37,-2.36l0 -15.58c0,-1.36 0.96,-1.91 2.13,-1.23l12.73 7.35c1.18,0.68 2.13,2.33 2.13,3.68z"/>
   <g>
    <path fill="#FFC800" d="M73.52 54.81l-13.5 7.8c-1.17,0.67 -1.17,1.78 0,2.45l12.74 7.35c1.17,0.68 3.07,0.68 4.25,0l12.73 -7.35c1.17,-0.67 1.17,-1.78 0,-2.45l-13.54 -7.82c-0.83,-0.46 -1.85,-0.45 -2.68,0.02z"/>
    <path id="1" fill="yellow" d="M74.89 58.14l-9.85 5.69 9.51 5.5 0 0c0.04,0.01 0.16,0.01 0.33,0.01 0.2,0 0.33,0 0.35,-0.01l9.51 -5.5 -9.85 -5.69zm-1.37 -3.33l-13.5 7.8c-1.17,0.67 -1.17,1.78 0,2.45l12.74 7.35c1.17,0.68 3.07,0.68 4.25,0l12.73 -7.35c1.17,-0.67 1.17,-1.78 0,-2.45l-13.54 -7.82c-0.83,-0.46 -1.85,-0.45 -2.68,0.02z"/>
   </g>
   <path fill="white" d="M73.52 30.31l-13.5 7.79c-1.17,0.68 -1.17,1.78 0,2.45l12.74 7.36c1.17,0.67 3.07,0.67 4.25,0l12.73 -7.36c1.17,-0.67 1.17,-1.77 0,-2.45l-13.54 -7.82c-0.83,-0.46 -1.85,-0.45 -2.68,0.03z"/>
   <g>
    <path fill="#FFC800" d="M94.75 42.56l-13.5 7.79c-1.17,0.68 -1.17,1.78 0,2.46l12.73 7.35c1.18,0.68 3.08,0.68 4.25,0l12.74 -7.35c1.17,-0.68 1.17,-1.78 0,-2.46l-13.54 -7.81c-0.84,-0.46 -1.85,-0.46 -2.68,0.02z"/>
    <path id="1" fill="yellow" d="M96.11 45.89l-9.85 5.69 9.51 5.49 0 0.01c0.04,0.01 0.16,0.01 0.34,0.01 0.19,0 0.32,-0.01 0.35,-0.02l9.51 -5.49 -9.86 -5.69zm-1.36 -3.33l-13.5 7.79c-1.17,0.68 -1.17,1.78 0,2.46l12.73 7.35c1.18,0.68 3.08,0.68 4.25,0l12.74 -7.35c1.17,-0.68 1.17,-1.78 0,-2.46l-13.54 -7.81c-0.84,-0.46 -1.85,-0.46 -2.68,0.02z"/>
   </g>
   <g>
    <path fill="#FFC800" d="M115.97 30.31l-13.5 7.79c-1.17,0.68 -1.17,1.78 0,2.45l12.74 7.36c1.17,0.67 3.07,0.67 4.24,0l12.74 -7.36c1.17,-0.67 1.17,-1.77 0,-2.45l-13.54 -7.82c-0.83,-0.46 -1.85,-0.45 -2.68,0.03z"/>
    <path id="1" fill="yellow" d="M117.34 33.64l-9.86 5.69 9.52 5.49 -0.01 0c0.04,0.01 0.17,0.02 0.34,0.02 0.2,0 0.33,-0.01 0.35,-0.02l9.51 -5.49 -9.85 -5.69zm-1.37 -3.33l-13.5 7.79c-1.17,0.68 -1.17,1.78 0,2.45l12.74 7.36c1.17,0.67 3.07,0.67 4.24,0l12.74 -7.36c1.17,-0.67 1.17,-1.77 0,-2.45l-13.54 -7.82c-0.83,-0.46 -1.85,-0.45 -2.68,0.03z"/>
   </g>
   <g>
    <path fill="#FFC800" d="M94.75 18.05l-13.5 7.8c-1.17,0.67 -1.17,1.77 0,2.45l12.73 7.35c1.18,0.68 3.08,0.68 4.25,0l12.74 -7.35c1.17,-0.67 1.17,-1.78 0,-2.45l-13.54 -7.82c-0.84,-0.46 -1.85,-0.45 -2.68,0.02z"/>
    <path id="1" fill="yellow" d="M96.11 21.38l-9.85 5.69 9.51 5.5 0 0c0.04,0.01 0.16,0.01 0.34,0.01 0.19,0 0.32,0 0.35,-0.01l9.51 -5.5 -9.86 -5.69zm-1.36 -3.33l-13.5 7.8c-1.17,0.67 -1.17,1.77 0,2.45l12.73 7.35c1.18,0.68 3.08,0.68 4.25,0l12.74 -7.35c1.17,-0.67 1.17,-1.78 0,-2.45l-13.54 -7.82c-0.84,-0.46 -1.85,-0.45 -2.68,0.02z"/>
   </g>
   <g>
    <path fill="#FFC800" d="M60.03 13.59c-1.17,0.68 -1.17,1.78 0,2.45l12.74 7.36c1.17,0.67 3.07,0.67 4.24,0l12.74 -7.36c1.17,-0.67 1.17,-1.77 0,-2.45l-13.5 -7.79c-0.84,-0.49 -1.88,-0.49 -2.73,0l-13.49 7.79z"/>
    <path id="1" fill="yellow" d="M60.03 13.59c-1.17,0.68 -1.17,1.78 0,2.45l12.74 7.36c1.17,0.67 3.07,0.67 4.24,0l12.74 -7.36c1.17,-0.67 1.17,-1.77 0,-2.45l-13.5 -7.79c-0.84,-0.49 -1.88,-0.49 -2.73,0l-13.49 7.79zm5 1.22l9.52 5.5 0 0c0.04,0.01 0.17,0.02 0.34,0.02 0.19,0 0.33,-0.01 0.35,-0.02l9.51 -5.49 -9.86 -5.7 -9.86 5.69z"/>
   </g>
   <g>
    <path fill="#FFC800" d="M38.8 25.84c-1.16,0.68 -1.16,1.78 0,2.46l12.74 7.35c1.17,0.68 3.08,0.68 4.25,0l12.74 -7.35c1.16,-0.68 1.16,-1.78 0,-2.46l-13.5 -7.79c-0.85,-0.48 -1.89,-0.48 -2.73,0l-13.5 7.79z"/>
    <path id="1" fill="yellow" d="M38.8 25.84c-1.16,0.68 -1.16,1.78 0,2.46l12.74 7.35c1.17,0.68 3.08,0.68 4.25,0l12.74 -7.35c1.16,-0.68 1.16,-1.78 0,-2.46l-13.5 -7.79c-0.85,-0.48 -1.89,-0.48 -2.73,0l-13.5 7.79zm5.01 1.23l9.52 5.49 0 0.01c0.04,0.01 0.16,0.01 0.33,0.01 0.2,0 0.33,-0.01 0.35,-0.02l9.52 -5.49 -9.87 -5.69 -9.85 5.69z"/>
   </g>
   <g>
    <path fill="#FFC800" d="M17.58 38.1c-1.17,0.67 -1.17,1.77 0,2.45l12.74 7.35c1.17,0.68 3.07,0.68 4.24,0l12.74 -7.35c1.17,-0.67 1.17,-1.78 0,-2.45l-13.5 -7.79c-0.84,-0.49 -1.88,-0.49 -2.72,0l-13.5 7.79z"/>
    <path id="1" fill="yellow" d="M17.58 38.1c-1.17,0.67 -1.17,1.77 0,2.45l12.74 7.35c1.17,0.68 3.07,0.68 4.24,0l12.74 -7.35c1.17,-0.67 1.17,-1.78 0,-2.45l-13.5 -7.79c-0.84,-0.49 -1.88,-0.49 -2.72,0l-13.5 7.79zm5.01 1.22l9.52 5.5 -0.01 0c0.05,0.01 0.17,0.01 0.34,0.01 0.2,0 0.33,0 0.35,-0.01l9.51 -5.5 -9.86 -5.69 -9.85 5.69z"/>
   </g>
   <g>
    <path fill="#FFC800" d="M38.8 50.35c-1.16,0.68 -1.16,1.78 0,2.45l12.74 7.36c1.17,0.67 3.08,0.67 4.25,0l12.73 -7.36c1.17,-0.67 1.17,-1.77 0,-2.45l-13.49 -7.79c-0.85,-0.49 -1.89,-0.49 -2.73,0l-13.5 7.79z"/>
    <path id="1" fill="yellow" d="M38.8 50.35c-1.16,0.68 -1.16,1.78 0,2.45l12.74 7.36c1.17,0.67 3.08,0.67 4.25,0l12.73 -7.36c1.17,-0.67 1.17,-1.77 0,-2.45l-13.49 -7.79c-0.85,-0.49 -1.89,-0.49 -2.73,0l-13.5 7.79zm5.01 1.22l9.52 5.5 0 0c0.04,0.01 0.16,0.02 0.33,0.02 0.2,0 0.33,-0.01 0.35,-0.02l9.52 -5.49 -9.87 -5.7 -9.85 5.69z"/>
   </g>
  </g>
 </g>
</svg>
