<?xml version="1.0" encoding="UTF-8"?>
<!DOCTYPE svg PUBLIC "-//W3C//DTD SVG 1.1//EN" "http://www.w3.org/Graphics/SVG/1.1/DTD/svg11.dtd">
<!-- Creator: CorelDRAW 2020 (64-Bit) -->
<svg xmlns="http://www.w3.org/2000/svg" xml:space="preserve" width="20px" height="35px" version="1.1" shape-rendering="geometricPrecision" text-rendering="geometricPrecision" image-rendering="optimizeQuality" fill-rule="evenodd" clip-rule="evenodd"
viewBox="0 0 20 34.65"
 xmlns:xlink="http://www.w3.org/1999/xlink"
 xmlns:xodm="http://www.corel.com/coreldraw/odm/2003">
 <g id="Layer_x0020_1">
  <metadata id="CorelCorpID_0Corel-Layer"/>
  <path fill="#E6E6E6" d="M0.91 0.68l4.89 0c0,0.81 0.23,1.62 0.69,2.32l-3.5 3.5c-1.4,-1.68 -2.09,-3.75 -2.08,-5.82zm6.99 0l4.2 0c0,0.53 -0.21,1.07 -0.62,1.48 -0.82,0.82 -2.15,0.82 -2.97,0 -0.41,-0.41 -0.61,-0.95 -0.61,-1.48zm6.29 0l4.9 0c-0.01,2.32 -0.9,4.64 -2.67,6.41 -3.36,3.36 -8.68,3.56 -12.24,0.59l3.5 -3.5c1.62,1.08 3.84,0.89 5.28,-0.54 0.82,-0.82 1.23,-1.89 1.23,-2.96zm5.81 8.23l0 4.89c-1.07,0.01 -2.14,0.42 -2.96,1.24 -1.44,1.44 -1.62,3.65 -0.54,5.28l-3.51 3.5c-2.96,-3.56 -2.76,-8.88 0.59,-12.24l0 0.01c1.78,-1.78 4.1,-2.67 6.42,-2.68zm0 6.99l0 4.2c-0.54,0 -1.08,-0.2 -1.49,-0.61 -0.81,-0.82 -0.81,-2.15 0.01,-2.97 0.41,-0.41 0.95,-0.62 1.48,-0.62zm0 6.29l0 4.9c-2.07,0.01 -4.14,-0.69 -5.82,-2.08l3.5 -3.5c0.7,0.46 1.51,0.69 2.32,0.68zm-0.91 13.13l-4.9 0c0.01,-0.81 -0.22,-1.62 -0.68,-2.32l3.5 -3.5 0 0c1.4,1.68 2.09,3.75 2.08,5.82zm-6.99 0l-4.2 0c0,-0.53 0.21,-1.07 0.62,-1.48 0.82,-0.82 2.15,-0.82 2.97,0 0.41,0.41 0.61,0.95 0.61,1.48zm-6.3 0l-4.89 0c0.01,-2.32 0.9,-4.64 2.67,-6.41l0 0c3.36,-3.36 8.68,-3.56 12.25,-0.59l-3.51 3.5c-1.63,-1.08 -3.84,-0.89 -5.28,0.54 -0.82,0.82 -1.23,1.89 -1.24,2.96zm-5.8 -8.23l0 -4.9c1.07,0 2.14,-0.41 2.96,-1.23 1.44,-1.44 1.62,-3.66 0.54,-5.28l3.51 -3.51 0 0c2.96,3.57 2.76,8.89 -0.6,12.25 -1.77,1.77 -4.09,2.66 -6.41,2.67zm0 -6.99l0 -4.2c0.54,0 1.07,0.2 1.48,0.61 0.82,0.82 0.82,2.15 0,2.97 -0.41,0.41 -0.95,0.62 -1.48,0.62zm0 -6.3l0 -4.89c2.07,-0.01 4.14,0.68 5.82,2.08l-3.5 3.5c-0.7,-0.46 -1.51,-0.69 -2.32,-0.69z"/>
 </g>
</svg>
