<?xml version="1.0" encoding="UTF-8"?>
<!DOCTYPE svg PUBLIC "-//W3C//DTD SVG 1.1//EN" "http://www.w3.org/Graphics/SVG/1.1/DTD/svg11.dtd">
<!-- Creator: CorelDRAW 2020 (64-Bit) -->
<svg xmlns="http://www.w3.org/2000/svg" xml:space="preserve" width="150px" height="150px" version="1.1" shape-rendering="geometricPrecision" text-rendering="geometricPrecision" image-rendering="optimizeQuality" fill-rule="evenodd" clip-rule="evenodd"
viewBox="0 0 150 150"
 xmlns:xlink="http://www.w3.org/1999/xlink"
 xmlns:xodm="http://www.corel.com/coreldraw/odm/2003">
 <g id="Layer_x0020_1">
  <metadata id="CorelCorpID_0Corel-Layer"/>
  <path fill="white" fill-opacity="0.250980" d="M145.02 81.46c-3.28,35.63 -33.39,63.54 -70.02,63.54 -36.63,0 -66.71,-27.91 -69.98,-63.54l38.18 0c3.02,14.73 16.13,25.84 31.8,25.84 15.7,0 28.78,-11.11 31.79,-25.84l38.23 0 0 0z"/>
  <path fill="white" fill-opacity="0.250980" d="M75 58.85c8.96,0 16.22,7.23 16.22,16.15 0,8.92 -7.27,16.15 -16.22,16.15 -8.96,0 -16.22,-7.24 -16.22,-16.15 0,-8.92 7.26,-16.15 16.22,-16.15z"/>
  <path fill="white" fill-opacity="0.250980" d="M75 5c36.63,0 66.74,27.91 70.02,63.54l-38.22 0c-3.02,-14.76 -16.1,-25.84 -31.8,-25.84 -15.67,0 -28.78,11.08 -31.8,25.84l-38.18 0c3.27,-35.63 33.35,-63.54 69.98,-63.54l0 0z"/>
 </g>
</svg>
