<?xml version="1.0" encoding="UTF-8"?>
<!DOCTYPE svg PUBLIC "-//W3C//DTD SVG 1.1//EN" "http://www.w3.org/Graphics/SVG/1.1/DTD/svg11.dtd">
<!-- Creator: CorelDRAW 2020 (64-Bit) -->
<svg xmlns="http://www.w3.org/2000/svg" xml:space="preserve" width="365px" height="150px" version="1.1" shape-rendering="geometricPrecision" text-rendering="geometricPrecision" image-rendering="optimizeQuality" fill-rule="evenodd" clip-rule="evenodd"
viewBox="0 0 365 150.17"
 xmlns:xlink="http://www.w3.org/1999/xlink"
 xmlns:xodm="http://www.corel.com/coreldraw/odm/2003">
 <g id="Layer_x0020_1">
  <metadata id="CorelCorpID_0Corel-Layer"/>
  <path fill="white" fill-rule="nonzero" d="M156.98 133.28l-1.27 0.33c-0.17,-0.58 -0.45,-1.05 -0.83,-1.39 -0.39,-0.34 -0.81,-0.51 -1.26,-0.51 -0.5,0 -0.9,0.18 -1.21,0.53 -0.32,0.35 -0.47,0.81 -0.47,1.4 0,0.52 0.16,1.05 0.5,1.61 0.2,0.35 0.7,0.9 1.49,1.65 0.82,0.76 1.4,1.48 1.72,2.14 0.33,0.67 0.49,1.32 0.49,1.96 0,0.67 -0.18,1.32 -0.54,1.94 -0.35,0.63 -0.83,1.12 -1.44,1.48 -0.6,0.36 -1.24,0.54 -1.92,0.54 -0.86,0 -1.6,-0.28 -2.23,-0.85 -0.63,-0.56 -1.09,-1.39 -1.36,-2.47l1.24 -0.44c0.19,0.83 0.51,1.45 0.95,1.85 0.44,0.41 0.95,0.61 1.52,0.61 0.66,0 1.22,-0.25 1.69,-0.75 0.47,-0.5 0.71,-1.12 0.71,-1.85 0,-0.54 -0.14,-1.07 -0.4,-1.58 -0.27,-0.51 -0.79,-1.13 -1.57,-1.85 -0.83,-0.78 -1.37,-1.38 -1.62,-1.79 -0.41,-0.69 -0.62,-1.43 -0.62,-2.19 0,-0.96 0.3,-1.74 0.9,-2.36 0.6,-0.62 1.35,-0.93 2.24,-0.93 0.75,0 1.42,0.24 2,0.74 0.59,0.49 1.02,1.22 1.29,2.18zm9.57 -2.92c1.81,0 3.31,0.61 4.51,1.84 1.2,1.23 1.8,2.78 1.8,4.66 0,2.28 -0.76,4.21 -2.28,5.76 -1.53,1.56 -3.43,2.34 -5.7,2.34 -1.93,0 -3.48,-0.6 -4.64,-1.8 -1.16,-1.19 -1.75,-2.76 -1.75,-4.7 0,-1.49 0.35,-2.86 1.05,-4.1 0.69,-1.25 1.66,-2.23 2.89,-2.94 1.23,-0.71 2.6,-1.06 4.12,-1.06zm-0.03 1.29c-1.28,0 -2.42,0.29 -3.43,0.88 -1.01,0.58 -1.8,1.4 -2.39,2.47 -0.59,1.06 -0.88,2.2 -0.88,3.41 0,1.02 0.21,1.94 0.64,2.75 0.43,0.81 1.01,1.42 1.76,1.85 0.75,0.43 1.64,0.65 2.65,0.65 1.2,0 2.32,-0.3 3.35,-0.9 1.02,-0.61 1.83,-1.44 2.42,-2.51 0.58,-1.07 0.88,-2.23 0.88,-3.47 0,-1.65 -0.56,-2.96 -1.67,-3.92 -0.92,-0.81 -2.04,-1.21 -3.33,-1.21zm16.25 -0.94l-0.17 1.35 -5.15 0 -0.59 4.55 5.14 0 -0.16 1.32 -5.15 0 -0.88 6.68 -1.32 0 1.81 -13.9 6.47 0zm1.01 0l8.01 0 -0.18 1.31 -3.36 0 -1.64 12.59 -1.36 0 1.64 -12.59 -3.28 0 0.17 -1.31zm8.45 0l1.31 0 1.87 10.32 5.22 -10.32 0.24 0 2.33 10.32 4.75 -10.32 1.39 0 -6.39 13.9 -0.23 0 -2.37 -10.48 -5.36 10.48 -0.23 0 -2.53 -13.9zm24.57 0l4.49 13.9 -1.37 0 -1.47 -4.55 -5.67 0 -2.54 4.55 -1.5 0 7.75 -13.9 0.31 0zm-0.44 2.91l-2.85 5.12 4.51 0 -1.66 -5.12zm9 -2.91l3.37 0c1.2,0 2.06,0.11 2.58,0.35 0.52,0.24 0.94,0.61 1.26,1.13 0.32,0.52 0.48,1.13 0.48,1.81 0,0.75 -0.19,1.45 -0.57,2.09 -0.38,0.64 -0.9,1.12 -1.55,1.45 -0.66,0.32 -1.52,0.48 -2.59,0.48l4.04 6.59 -1.52 0 -4.05 -6.59 -1.05 0 -0.86 6.59 -1.36 0 1.82 -13.9zm1.18 1.33l-0.61 4.63 1.55 0c1.15,0 1.9,-0.05 2.25,-0.14 0.59,-0.15 1.07,-0.45 1.43,-0.89 0.37,-0.45 0.55,-0.99 0.55,-1.63 0,-0.73 -0.25,-1.26 -0.76,-1.58 -0.39,-0.26 -1.09,-0.39 -2.1,-0.39l-2.31 0zm17.26 -1.33l-0.19 1.35 -6.01 0 -0.6 4.55 6.01 0 -0.17 1.32 -6.01 0 -0.7 5.36 6.02 0 -0.15 1.32 -7.4 0 1.82 -13.9 7.38 0zm7.81 0l2.86 0c1.82,0 3.21,0.24 4.18,0.74 0.97,0.49 1.75,1.26 2.34,2.3 0.6,1.03 0.89,2.21 0.89,3.54 0,1.42 -0.33,2.73 -1,3.94 -0.68,1.2 -1.5,2.06 -2.48,2.59 -0.98,0.52 -2.44,0.79 -4.39,0.79l-4.22 0 1.82 -13.9zm1.18 1.33l-1.46 11.21 1.17 0c1.8,0 3,-0.05 3.59,-0.15 0.89,-0.15 1.65,-0.45 2.26,-0.89 0.61,-0.45 1.13,-1.11 1.57,-2 0.44,-0.88 0.65,-1.85 0.65,-2.9 0,-1.1 -0.24,-2.06 -0.73,-2.89 -0.49,-0.82 -1.17,-1.44 -2.02,-1.85 -0.73,-0.35 -1.97,-0.53 -3.7,-0.53l-1.33 0zm20.1 -1.33l-0.19 1.35 -6.01 0 -0.59 4.55 6.01 0 -0.18 1.32 -6 0 -0.7 5.36 6.02 0 -0.16 1.32 -7.39 0 1.81 -13.9 7.38 0zm1.52 0l1.35 0 3.32 11 6.23 -11 1.48 0 -7.86 13.9 -0.32 0 -4.2 -13.9zm21.62 0l-0.19 1.35 -6.01 0 -0.59 4.55 6 0 -0.17 1.32 -6.01 0 -0.7 5.36 6.02 0 -0.15 1.32 -7.4 0 1.82 -13.9 7.38 0zm2.67 0l1.36 0 -1.64 12.58 5.78 0 -0.16 1.32 -7.15 0 1.81 -13.9zm15.08 -0.35c1.81,0 3.31,0.61 4.51,1.84 1.2,1.23 1.8,2.78 1.8,4.66 0,2.28 -0.76,4.21 -2.28,5.76 -1.53,1.56 -3.43,2.34 -5.7,2.34 -1.93,0 -3.48,-0.6 -4.64,-1.8 -1.16,-1.19 -1.75,-2.76 -1.75,-4.7 0,-1.49 0.35,-2.86 1.05,-4.1 0.7,-1.25 1.66,-2.23 2.89,-2.94 1.23,-0.71 2.6,-1.06 4.12,-1.06zm-0.03 1.29c-1.28,0 -2.42,0.29 -3.43,0.88 -1,0.58 -1.8,1.4 -2.39,2.47 -0.59,1.06 -0.88,2.2 -0.88,3.41 0,1.02 0.21,1.94 0.64,2.75 0.43,0.81 1.01,1.42 1.76,1.85 0.75,0.43 1.64,0.65 2.65,0.65 1.2,0 2.32,-0.3 3.35,-0.9 1.02,-0.61 1.83,-1.44 2.42,-2.51 0.58,-1.07 0.88,-2.23 0.88,-3.47 0,-1.65 -0.56,-2.96 -1.67,-3.92 -0.92,-0.81 -2.04,-1.21 -3.33,-1.21zm9.95 -0.94l3.65 0c1.21,0 2.07,0.11 2.6,0.34 0.52,0.24 0.94,0.61 1.26,1.13 0.31,0.51 0.47,1.12 0.47,1.82 0,0.91 -0.25,1.71 -0.75,2.39 -0.49,0.67 -1.12,1.13 -1.88,1.38 -0.55,0.18 -1.52,0.27 -2.92,0.27l-2.03 0 -0.85 6.57 -1.36 0 1.81 -13.9zm1.19 1.33l-0.61 4.63 1.86 0c1.25,0 2.11,-0.09 2.59,-0.27 0.49,-0.18 0.87,-0.49 1.17,-0.93 0.29,-0.44 0.43,-0.92 0.43,-1.46 0,-0.44 -0.1,-0.82 -0.29,-1.13 -0.2,-0.31 -0.48,-0.52 -0.83,-0.65 -0.35,-0.12 -1,-0.19 -1.94,-0.19l-2.38 0zm17.08 -1.33l-0.19 1.35 -6.01 0 -0.59 4.55 6.01 0 -0.18 1.32 -6 0 -0.7 5.36 6.02 0 -0.16 1.32 -7.39 0 1.81 -13.9 7.38 0zm2.92 0l3.37 0c1.2,0 2.06,0.11 2.58,0.35 0.52,0.24 0.94,0.61 1.26,1.13 0.33,0.52 0.49,1.13 0.49,1.81 0,0.75 -0.19,1.45 -0.57,2.09 -0.38,0.64 -0.9,1.12 -1.56,1.45 -0.66,0.32 -1.52,0.48 -2.59,0.48l4.04 6.59 -1.52 0 -4.04 -6.59 -1.06 0 -0.86 6.59 -1.35 0 1.81 -13.9zm1.18 1.33l-0.6 4.63 1.55 0c1.14,0 1.89,-0.05 2.25,-0.14 0.59,-0.15 1.07,-0.45 1.43,-0.89 0.36,-0.45 0.54,-0.99 0.54,-1.63 0,-0.73 -0.25,-1.26 -0.76,-1.58 -0.39,-0.26 -1.09,-0.39 -2.1,-0.39l-2.31 0z"/>
  <g id="_1392625632">
   <path fill="white" fill-rule="nonzero" d="M359.56 30.54l-9.43 0c0.05,0.85 0.33,1.54 0.84,2.07 0.5,0.53 1.1,0.8 1.77,0.8 1.21,0 2.17,-0.55 2.85,-1.64l3.62 1.2c-1.34,2.35 -3.43,3.53 -6.27,3.53 -2.08,0 -3.74,-0.63 -4.97,-1.89 -1.24,-1.27 -1.85,-2.97 -1.85,-5.11 0,-1.91 0.64,-3.53 1.94,-4.83 1.3,-1.31 2.9,-1.96 4.8,-1.96 1.91,0 3.51,0.68 4.79,2.06 1.27,1.37 1.91,3.08 1.91,5.13l0 0.64zm-9.43 -2.65l5.36 0c-0.37,-1.67 -1.23,-2.5 -2.56,-2.5 -0.76,0 -1.4,0.22 -1.9,0.65 -0.5,0.44 -0.8,1.05 -0.9,1.85z"/>
   <path fill="white" fill-rule="nonzero" d="M339.01 15.64l3.98 0 0 20.58 -3.88 0 0 -2.28 -0.07 0c-1.15,1.67 -2.58,2.5 -4.29,2.5 -1.53,0 -2.83,-0.67 -3.9,-1.99 -1.08,-1.33 -1.62,-2.94 -1.62,-4.86 0,-1.9 0.56,-3.54 1.67,-4.89 1.11,-1.35 2.45,-2.02 4,-2.02 0.89,0 1.64,0.16 2.24,0.48 0.61,0.32 1.24,0.84 1.87,1.57l0 -9.09zm-2.93 10.95c-0.65,0 -1.26,0.3 -1.83,0.9 -0.57,0.59 -0.85,1.39 -0.85,2.41 0,0.81 0.25,1.5 0.75,2.08 0.5,0.57 1.11,0.86 1.82,0.86 0.85,0 1.56,-0.31 2.13,-0.93 0.57,-0.62 0.85,-1.4 0.85,-2.32 0,-0.8 -0.28,-1.5 -0.83,-2.1 -0.55,-0.6 -1.23,-0.9 -2.04,-0.9z"/>
   <path fill="white" fill-rule="nonzero" d="M334.58 88.64l5.27 0 12.74 31.29 -6.79 0 -2.5 -6.15 -12.01 0 -2.46 6.15 -6.75 0 12.5 -31.29zm2.66 10.25l-3.69 9.23 7.45 0 -3.76 -9.23z"/>
   <path fill="white" fill-rule="nonzero" d="M296.21 88.64l10.69 0c4.56,0 8.23,1.44 11.01,4.31 2.78,2.88 4.17,6.67 4.17,11.37 0,4.72 -1.43,8.5 -4.3,11.35 -2.87,2.83 -6.69,4.26 -11.45,4.26l-10.12 0 0 -31.29zm6.74 5.91l0 19.33 2.68 0c2.78,0 5.06,-0.76 6.85,-2.27 1.78,-1.51 2.67,-4.02 2.67,-7.55 0,-2.05 -0.43,-3.87 -1.29,-5.44 -0.86,-1.59 -2.11,-2.66 -3.74,-3.23 -1.64,-0.56 -3.2,-0.84 -4.68,-0.84l-2.49 0z"/>
   <path fill="white" fill-rule="nonzero" d="M284.41 88.64l6.59 0 0 31.29 -6.52 0 -14.37 -20.26 0 20.26 -6.74 0 0 -31.29 6.66 0 14.38 20.11 0 -20.11z"/>
   <path fill="white" fill-rule="nonzero" d="M241.19 88.64l5.27 0 12.74 31.29 -6.78 0 -2.51 -6.15 -12 0 -2.46 6.15 -6.75 0 12.49 -31.29zm2.66 10.25l-3.68 9.23 7.44 0 -3.76 -9.23z"/>
   <path fill="white" fill-rule="nonzero" d="M201.15 88.64l10.32 0c3.14,0 5.62,0.82 7.44,2.48 1.83,1.65 2.74,3.88 2.74,6.69 0,1.6 -0.42,3.27 -1.26,5 -0.83,1.73 -2.38,3.09 -4.63,4.07l8.77 13.05 -7.73 0 -8.14 -12.11 -0.78 0 0 12.11 -6.73 0 0 -31.29zm6.73 5.57l0 8.15 1.48 0c3.58,0 5.36,-1.44 5.36,-4.31 0,-1.18 -0.47,-2.12 -1.39,-2.81 -0.93,-0.69 -2.23,-1.03 -3.87,-1.03l-1.58 0z"/>
   <path fill="white" fill-rule="nonzero" d="M189.2 88.64l6.73 0 0 31.29 -6.73 0 0 -31.29z"/>
   <path fill="white" fill-rule="nonzero" d="M152.49 88.64l8.03 0 5.87 18.74 5.88 -18.74 7.74 0 3.97 31.29 -6.4 0 -2.75 -22.01 -6.9 22.01 -3.07 0 -7.06 -22.21 -2.62 22.21 -6.53 0 3.84 -31.29z"/>
   <path fill="white" fill-rule="nonzero" d="M329.57 46.93l5.27 0 12.74 31.28 -6.78 0 -2.51 -6.15 -12 0 -2.46 6.15 -6.75 0 12.49 -31.28zm2.66 10.25l-3.68 9.22 7.44 0 -3.76 -9.22z"/>
   <path fill="white" fill-rule="nonzero" d="M289.53 46.93l10.32 0c3.14,0 5.62,0.82 7.44,2.47 1.83,1.65 2.74,3.89 2.74,6.7 0,1.6 -0.42,3.27 -1.25,5 -0.84,1.72 -2.39,3.08 -4.64,4.07l8.77 13.04 -7.73 0 -8.14 -12.1 -0.78 0 0 12.1 -6.73 0 0 -31.28zm6.73 5.56l0 8.15 1.48 0c3.58,0 5.36,-1.44 5.36,-4.31 0,-1.18 -0.47,-2.11 -1.39,-2.8 -0.93,-0.7 -2.22,-1.04 -3.87,-1.04l-1.58 0z"/>
   <path fill="white" fill-rule="nonzero" d="M277.58 46.93l6.73 0 0 31.28 -6.73 0 0 -31.28z"/>
   <path fill="white" fill-rule="nonzero" d="M254.74 46.93l17.62 0 0 6.2 -10.88 0 0 6.29 10.88 0 0 6.1 -10.88 0 0 6.5 10.88 0 0 6.19 -17.62 0 0 -31.28z"/>
   <path fill="white" fill-rule="nonzero" d="M220.05 46.93l6.83 0 7.89 20.79 7.87 -20.79 6.89 0 -11.85 31.28 -5.81 0 -11.82 -31.28z"/>
   <path fill="white" fill-rule="nonzero" d="M208.1 46.93l6.74 0 0 31.28 -6.74 0 0 -31.28z"/>
   <path fill="white" fill-rule="nonzero" d="M186.97 46.93l6.74 0 0 24.55 9.18 0 0 6.73 -15.92 0 0 -31.28z"/>
   <path fill="white" fill-rule="nonzero" d="M150.95 62.54c0,-4.53 1.5,-8.25 4.48,-11.2 2.99,-2.94 6.54,-4.41 10.63,-4.41 4.54,0 8.28,1.47 11.25,4.43 2.96,2.97 4.45,6.7 4.45,11.22 0,4.49 -1.47,8.22 -4.4,11.18 -2.94,2.97 -6.63,4.45 -11.08,4.45 -4.46,0 -8.13,-1.48 -11.01,-4.43 -2.88,-2.94 -4.32,-6.7 -4.32,-11.24zm15.44 -9.51c-2.57,-0.05 -4.64,0.84 -6.21,2.66 -1.57,1.82 -2.36,4.16 -2.36,7.03 0,2.72 0.8,4.97 2.41,6.76 1.6,1.78 3.62,2.68 6.07,2.68 2.57,0 4.64,-0.89 6.22,-2.65 1.59,-1.76 2.37,-4.09 2.37,-6.97 0,-2.85 -0.77,-5.13 -2.32,-6.85 -1.55,-1.73 -3.61,-2.61 -6.18,-2.66z"/>
   <path fill="white" fill-rule="nonzero" d="M289.04 20.82c0,-4.52 1.49,-8.25 4.48,-11.2 2.99,-2.94 6.53,-4.41 10.63,-4.41 4.54,0 8.28,1.48 11.24,4.44 2.97,2.96 4.46,6.7 4.46,11.21 0,4.5 -1.47,8.22 -4.41,11.19 -2.93,2.96 -6.63,4.45 -11.08,4.45 -4.46,0 -8.12,-1.48 -11.01,-4.43 -2.87,-2.95 -4.31,-6.7 -4.31,-11.25zm15.43 -9.5c-2.56,-0.05 -4.63,0.83 -6.2,2.65 -1.58,1.82 -2.37,4.17 -2.37,7.04 0,2.72 0.81,4.97 2.41,6.75 1.6,1.79 3.63,2.68 6.08,2.68 2.56,0 4.64,-0.88 6.22,-2.64 1.58,-1.76 2.37,-4.09 2.37,-6.98 0,-2.84 -0.77,-5.12 -2.32,-6.85 -1.55,-1.72 -3.61,-2.6 -6.19,-2.65z"/>
   <path fill="white" fill-rule="nonzero" d="M281.92 12.24l-4.36 4.08c-0.91,-1.57 -2.04,-2.75 -3.38,-3.53 -1.34,-0.78 -2.75,-1.17 -4.22,-1.17 -2.38,0 -4.45,0.9 -6.2,2.72 -1.75,1.8 -2.63,3.93 -2.63,6.39 0,2.61 0.88,4.82 2.63,6.64 1.75,1.81 3.87,2.72 6.34,2.72 1.35,0 2.64,-0.34 3.89,-1.02 1.24,-0.68 2.24,-1.95 3,-3.82l-7.22 0 0 -5.94 14.05 0 0 3.94c0,2.03 -0.69,4.21 -2.09,6.53 -1.38,2.34 -3.22,4.03 -5.49,5.11 -2.27,1.07 -4.56,1.61 -6.88,1.61 -4.2,0 -7.75,-1.52 -10.64,-4.57 -2.88,-3.04 -4.33,-6.81 -4.33,-11.29 0,-4.25 1.49,-7.89 4.46,-10.9 2.98,-3.02 6.55,-4.53 10.75,-4.53 5.34,0 9.45,2.35 12.32,7.03z"/>
   <path fill="white" fill-rule="nonzero" d="M236.38 5.21l5.27 0 12.74 31.29 -6.79 0 -2.5 -6.15 -12.01 0 -2.46 6.15 -6.75 0 12.5 -31.29zm2.66 10.25l-3.69 9.23 7.45 0 -3.76 -9.23z"/>
   <path fill="white" fill-rule="nonzero" d="M211.93 5.21l6.74 0 0 31.29 -6.74 0 0 -31.29z"/>
   <path fill="white" fill-rule="nonzero" d="M182.12 5.21l6.74 0 0 12.06 11.12 0 0 -12.06 6.74 0 0 31.29 -6.74 0 0 -12.45 -11.12 0 0 12.45 -6.74 0 0 -31.29z"/>
   <path fill="white" fill-rule="nonzero" d="M155.87 5.21l21.04 0 0 6.64 -7.18 0 0 24.65 -6.74 0 0 -24.65 -7.12 0 0 -6.64z"/>
  </g>
  <g id="_1392624816">
   <path fill="white" d="M5.21 44.71c0,-2.64 1.41,-5.07 3.69,-6.39l52.32 -30.21c2.28,-1.31 5.09,-1.31 7.38,0l52.31 30.21c2.28,1.32 3.69,3.75 3.69,6.39l0 60.4c0,2.64 -1.41,5.08 -3.69,6.39l-52.31 30.21c-2.29,1.32 -5.1,1.32 -7.38,0l-52.32 -30.21c-2.28,-1.31 -3.69,-3.75 -3.69,-6.38l0 -60.41z"/>
   <g>
    <path fill="#3C3C3C" d="M12.89 85.99l-1.53 -0.89c-0.76,-0.44 -1.23,-1.25 -1.23,-2.13l0 -16.11c0,-0.88 0.47,-1.7 1.23,-2.14l1.53 -0.88 -1.53 -0.89c-0.76,-0.44 -1.23,-1.25 -1.23,-2.13l0 -16.11c0,-0.88 0.47,-1.7 1.23,-2.14l13.95 -8.05c0.76,-0.44 1.7,-0.44 2.47,0l1.53 0.88 0 -1.77c0,-0.88 0.47,-1.69 1.23,-2.13l13.95 -8.06c0.76,-0.44 1.7,-0.44 2.47,0l1.53 0.89 0 -1.77c0,-0.88 0.47,-1.7 1.23,-2.14l13.95 -8.05c0.77,-0.44 1.71,-0.44 2.47,0l13.95 8.05c0.76,0.44 1.23,1.26 1.23,2.14l0 1.77 1.54 -0.89c0.76,-0.44 1.7,-0.44 2.46,0l13.95 8.06c0.77,0.44 1.24,1.25 1.24,2.13l0 1.77 1.53 -0.88c0.76,-0.44 1.7,-0.44 2.46,0l13.95 8.05c0.77,0.44 1.24,1.26 1.24,2.14l0 16.11c0,0.88 -0.47,1.69 -1.24,2.13l-1.53 0.89 1.53 0.88c0.77,0.44 1.24,1.26 1.24,2.14l0 16.11c0,0.88 -0.47,1.69 -1.24,2.13l-1.53 0.89 1.53 0.88c0.77,0.44 1.24,1.26 1.24,2.14l0 16.1c0,0.89 -0.47,1.7 -1.24,2.14l-13.95 8.06c-0.76,0.44 -1.7,0.44 -2.46,0l-1.53 -0.89 0 1.77c0,0.88 -0.47,1.7 -1.24,2.14l-13.95 8.05c-0.76,0.44 -1.7,0.44 -2.46,0l-1.54 -0.88 0 1.76c0,0.89 -0.47,1.7 -1.23,2.14l-13.95 8.05c-0.76,0.45 -1.7,0.45 -2.47,0l-13.95 -8.05c-0.76,-0.44 -1.23,-1.25 -1.23,-2.14l0 -1.76 -1.53 0.88c-0.77,0.44 -1.71,0.44 -2.47,0l-13.95 -8.05c-0.76,-0.44 -1.23,-1.26 -1.23,-2.14l0 -1.77 -1.53 0.89c-0.77,0.44 -1.71,0.44 -2.47,0l-13.95 -8.06c-0.76,-0.44 -1.23,-1.25 -1.23,-2.14l0 -16.1c0,-0.88 0.47,-1.7 1.23,-2.14l1.53 -0.88z"/>
    <path id="1" fill="black" d="M12.89 85.99l-1.53 -0.89c-0.76,-0.44 -1.23,-1.25 -1.23,-2.13l0 -16.11c0,-0.88 0.47,-1.7 1.23,-2.14l1.53 -0.88 -1.53 -0.89c-0.76,-0.44 -1.23,-1.25 -1.23,-2.13l0 -16.11c0,-0.88 0.47,-1.7 1.23,-2.14l13.95 -8.05c0.76,-0.44 1.7,-0.44 2.47,0l1.53 0.88 0 -1.77c0,-0.88 0.47,-1.69 1.23,-2.13l13.95 -8.06c0.76,-0.44 1.7,-0.44 2.47,0l1.53 0.89 0 -1.77c0,-0.88 0.47,-1.7 1.23,-2.14l13.95 -8.05c0.77,-0.44 1.71,-0.44 2.47,0l13.95 8.05c0.76,0.44 1.23,1.26 1.23,2.14l0 1.77 1.54 -0.89c0.76,-0.44 1.7,-0.44 2.46,0l13.95 8.06c0.77,0.44 1.24,1.25 1.24,2.13l0 1.77 1.53 -0.88c0.76,-0.44 1.7,-0.44 2.46,0l13.95 8.05c0.77,0.44 1.24,1.26 1.24,2.14l0 16.11c0,0.88 -0.47,1.69 -1.24,2.13l-1.53 0.89 1.53 0.88c0.77,0.44 1.24,1.26 1.24,2.14l0 16.11c0,0.88 -0.47,1.69 -1.24,2.13l-1.53 0.89 1.53 0.88c0.77,0.44 1.24,1.26 1.24,2.14l0 16.1c0,0.89 -0.47,1.7 -1.24,2.14l-13.95 8.06c-0.76,0.44 -1.7,0.44 -2.46,0l-1.53 -0.89 0 1.77c0,0.88 -0.47,1.7 -1.24,2.14l-13.95 8.05c-0.76,0.44 -1.7,0.44 -2.46,0l-1.54 -0.88 0 1.76c0,0.89 -0.47,1.7 -1.23,2.14l-13.95 8.05c-0.76,0.45 -1.7,0.45 -2.47,0l-13.95 -8.05c-0.76,-0.44 -1.23,-1.25 -1.23,-2.14l0 -1.76 -1.53 0.88c-0.77,0.44 -1.71,0.44 -2.47,0l-13.95 -8.05c-0.76,-0.44 -1.23,-1.26 -1.23,-2.14l0 -1.77 -1.53 0.89c-0.77,0.44 -1.71,0.44 -2.47,0l-13.95 -8.06c-0.76,-0.44 -1.23,-1.25 -1.23,-2.14l0 -16.1c0,-0.88 0.47,-1.7 1.23,-2.14l1.53 -0.88zm-2.96 0c-0.33,-0.29 -0.61,-0.64 -0.82,-1.01 -0.35,-0.61 -0.55,-1.3 -0.55,-2.01l0 -16.11c0,-0.72 0.2,-1.41 0.55,-2.02 0.21,-0.37 0.49,-0.71 0.82,-1 -0.33,-0.29 -0.61,-0.64 -0.82,-1.01 -0.35,-0.61 -0.55,-1.3 -0.55,-2.01l0 -16.11c0,-0.72 0.2,-1.41 0.55,-2.02 0.34,-0.59 0.84,-1.1 1.47,-1.47l0 0 13.95 -8.05c0.63,-0.37 1.32,-0.55 2.01,-0.55 0.43,0 0.87,0.07 1.29,0.22 0.08,-0.43 0.24,-0.84 0.46,-1.22 0.35,-0.6 0.85,-1.12 1.47,-1.47 0.03,-0.02 0.06,-0.04 0.09,-0.05l13.86 -8.01 0 0c0.63,-0.36 1.32,-0.54 2.01,-0.54 0.44,0 0.87,0.07 1.29,0.21 0.09,-0.43 0.24,-0.84 0.46,-1.21 0.35,-0.61 0.85,-1.12 1.47,-1.48l13.95 -8.05c0.63,-0.37 1.33,-0.55 2.02,-0.55 0.68,0 1.38,0.18 2.01,0.55 0,0 0,0 0,0l0 0 13.95 8.05c0.62,0.36 1.12,0.87 1.47,1.48 0.22,0.37 0.38,0.78 0.47,1.21 0.41,-0.14 0.85,-0.21 1.28,-0.21 0.69,0 1.39,0.18 2.01,0.54 0.03,0.02 0.06,0.03 0.08,0.05l13.87 8.01c0,0 0,0 0,0l0 0c0.62,0.35 1.13,0.87 1.48,1.47 0.21,0.38 0.37,0.79 0.46,1.22 0.42,-0.15 0.85,-0.22 1.28,-0.22 0.69,0 1.38,0.18 2.01,0.55 0,0 0,0 0,0l0.01 0 13.95 8.05c0.03,0.02 0.07,0.04 0.1,0.07 0.58,0.35 1.04,0.84 1.37,1.41 0.35,0.61 0.54,1.3 0.54,2.01l0 16.11c0,0.71 -0.19,1.4 -0.54,2 -0.22,0.38 -0.5,0.72 -0.83,1.02 0.33,0.29 0.61,0.63 0.83,1.01 0.35,0.6 0.54,1.3 0.54,2.01l0 16.11c0,0.71 -0.19,1.4 -0.54,2 -0.22,0.38 -0.5,0.72 -0.83,1.01 0.33,0.29 0.61,0.64 0.83,1.02 0.35,0.6 0.54,1.3 0.54,2.01l0 16.1c0,0.72 -0.19,1.41 -0.54,2.01 -0.35,0.61 -0.85,1.12 -1.47,1.48l0 0 -13.95 8.06c-0.04,0.02 -0.08,0.04 -0.12,0.05 -0.6,0.33 -1.25,0.49 -1.9,0.49 -0.43,0 -0.86,-0.07 -1.28,-0.21 -0.09,0.42 -0.25,0.83 -0.46,1.21 -0.35,0.61 -0.86,1.12 -1.48,1.48l-13.95 8.05c-0.03,0.02 -0.07,0.04 -0.11,0.06 -0.6,0.32 -1.25,0.48 -1.9,0.48 -0.43,0 -0.87,-0.07 -1.28,-0.21 -0.09,0.43 -0.25,0.84 -0.47,1.21 -0.35,0.61 -0.85,1.12 -1.47,1.48l-13.95 8.06c-0.03,0.02 -0.07,0.04 -0.11,0.05 -0.6,0.33 -1.25,0.49 -1.9,0.49 -0.69,0 -1.39,-0.18 -2.02,-0.54l-13.95 -8.06c-0.62,-0.36 -1.12,-0.87 -1.47,-1.48 -0.22,-0.37 -0.37,-0.78 -0.46,-1.21 -0.42,0.14 -0.85,0.21 -1.29,0.21 -0.69,0 -1.38,-0.18 -2.01,-0.54l-13.95 -8.05c-0.62,-0.36 -1.12,-0.87 -1.47,-1.48 -0.22,-0.38 -0.38,-0.79 -0.46,-1.21 -0.42,0.14 -0.86,0.21 -1.29,0.21 -0.69,0 -1.38,-0.18 -2.01,-0.54l-13.95 -8.06c-0.04,-0.02 -0.07,-0.04 -0.11,-0.07 -0.57,-0.35 -1.04,-0.84 -1.36,-1.4 -0.35,-0.61 -0.55,-1.3 -0.55,-2.02l0 -16.1c0,-0.72 0.2,-1.41 0.55,-2.02 0.02,-0.04 0.04,-0.07 0.06,-0.1 0.21,-0.34 0.47,-0.64 0.76,-0.9z"/>
   </g>
   <g>
    <path fill="#19C84B" d="M65.97 77.75l0 13.29c0,1.14 0.77,1.7 1.81,1.17l12.31 -7.11c0.76,-0.44 1.23,-1.25 1.23,-2.13l0 -14.09c0,-1.22 -0.86,-1.71 -1.92,-1.1l-11.51 6.64c-1.06,0.61 -1.92,2.1 -1.92,3.33z"/>
    <path id="1" fill="#80FF00" d="M69.21 77.75l0 9.91 8.88 -5.13 0 -10.28 -8.59 4.96c-0.02,0.02 -0.09,0.11 -0.17,0.26 -0.08,0.13 -0.12,0.23 -0.12,0.28zm-3.24 0l0 13.29c0,1.14 0.77,1.7 1.81,1.17l12.31 -7.11c0.76,-0.44 1.23,-1.25 1.23,-2.13l0 -14.09c0,-1.22 -0.86,-1.71 -1.92,-1.1l-11.51 6.64c-1.06,0.61 -1.92,2.1 -1.92,3.33z"/>
   </g>
   <path fill="black" d="M29.31 71.89c0,0.88 0.47,1.7 1.23,2.14l13.95 8.05c0.76,0.44 1.7,0.44 2.47,0 0.32,-0.19 0.51,-0.59 0.51,-1.13l0 -14.68c0,-0.88 0.47,-1.7 1.23,-2.14l12.72 -7.34c0.46,-0.27 0.72,-0.63 0.72,-1.01 0,-0.88 -0.47,-1.69 -1.23,-2.13l-13.95 -8.06c-0.77,-0.44 -1.71,-0.44 -2.47,0l-13.95 8.06c-0.76,0.44 -1.23,1.25 -1.23,2.13l0 16.11zm0.72 3.02c-1.08,-0.62 -1.74,-1.77 -1.74,-3.02l-0.51 0.3c-0.77,0.44 -1.71,0.44 -2.47,0l-12.72 -7.35c-0.46,-0.26 -0.9,-0.31 -1.23,-0.12l1.53 -0.88 12.42 7.17c0.76,0.44 1.7,0.44 2.47,0 0.32,-0.19 0.51,-0.6 0.51,-1.13l0 -14.69c0,-0.88 0.47,-1.69 1.23,-2.13l12.72 -7.35c0.46,-0.26 0.72,-0.63 0.72,-1 0,-0.88 -0.47,-1.7 -1.23,-2.14l-12.42 -7.17 0 -1.77c0,0.38 0.26,0.74 0.72,1.01l12.72 7.34c0.76,0.44 1.23,1.26 1.23,2.14l0 0.59c1.08,-0.63 2.41,-0.63 3.49,0l0 -0.59c0,-0.88 0.47,-1.7 1.23,-2.14l12.72 -7.34c0.46,-0.27 0.72,-0.63 0.72,-1.01 0,-0.88 -0.47,-1.69 -1.23,-2.13l-12.42 -7.17 0 -1.77c0,0.37 0.26,0.74 0.72,1l12.72 7.35c0.76,0.44 1.23,1.25 1.23,2.13l0 0.59c1.08,-0.62 2.41,-0.62 3.49,0l0 -0.59c0,-0.88 0.47,-1.69 1.23,-2.13l12.72 -7.35c0.46,-0.26 0.72,-0.63 0.72,-1l0 1.77 -12.41 7.17c-0.77,0.44 -1.24,1.25 -1.24,2.13 0,0.38 0.26,0.74 0.72,1.01l12.72 7.34c0.77,0.44 1.24,1.26 1.24,2.14l0 0.59c1.07,-0.63 2.4,-0.63 3.48,0l0 -0.59c0,-0.88 0.47,-1.7 1.24,-2.14l12.71 -7.34c0.47,-0.27 0.73,-0.63 0.73,-1.01l0 1.77 -12.42 7.17c-0.77,0.44 -1.24,1.26 -1.24,2.14 0,0.37 0.26,0.74 0.73,1l12.71 7.35c0.77,0.44 1.24,1.25 1.24,2.13l0 14.69c0,0.53 0.18,0.94 0.51,1.13 0.76,0.44 1.7,0.44 2.46,0l12.42 -7.17 1.53 0.88c-0.32,-0.19 -0.77,-0.14 -1.23,0.12l-12.72 7.35c-0.76,0.44 -1.7,0.44 -2.46,0l-0.51 -0.3c0,1.25 -0.67,2.4 -1.75,3.02l0.51 0.3c0.77,0.44 1.24,1.25 1.24,2.13l0 14.69c0,0.53 0.18,0.94 0.51,1.13 0.76,0.44 1.7,0.44 2.46,0l12.42 -7.17 1.53 0.88c-0.32,-0.19 -0.77,-0.14 -1.23,0.12l-12.72 7.35c-0.76,0.44 -1.7,0.44 -2.46,0l-0.51 -0.3c0,1.25 -0.67,2.4 -1.75,3.02l0.51 0.3c0.77,0.44 1.24,1.25 1.24,2.13l0 14.69c0,0.53 0.18,0.94 0.51,1.12l-1.53 -0.88 0 -14.34c0,-0.88 -0.47,-1.69 -1.24,-2.13 -0.32,-0.19 -0.77,-0.15 -1.23,0.12l-12.72 7.34c-0.76,0.44 -1.7,0.44 -2.46,0l-0.51 -0.3c0,1.25 -0.67,2.4 -1.75,3.03l0.51 0.29c0.77,0.44 1.24,1.26 1.24,2.14l0 14.68c0,0.54 0.18,0.94 0.51,1.13l-1.54 -0.88 0 -14.34c0,-0.89 -0.47,-1.7 -1.23,-2.14 -0.33,-0.19 -0.77,-0.14 -1.23,0.12l-12.72 7.34c-0.76,0.45 -1.7,0.45 -2.47,0l-12.71 -7.34c-0.47,-0.26 -0.91,-0.31 -1.24,-0.12 -0.76,0.44 -1.23,1.25 -1.23,2.14l0 14.34 -1.53 0.88c0.32,-0.19 0.51,-0.59 0.51,-1.13l0 -14.68c0,-0.88 0.47,-1.7 1.23,-2.14l0.51 -0.29c-1.08,-0.63 -1.74,-1.78 -1.74,-3.03l-0.51 0.3c-0.77,0.44 -1.71,0.44 -2.47,0l-12.72 -7.34c-0.46,-0.27 -0.9,-0.31 -1.23,-0.12 -0.76,0.44 -1.23,1.25 -1.23,2.13l0 14.34 -1.53 0.88c0.32,-0.18 0.51,-0.59 0.51,-1.12l0 -14.69c0,-0.88 0.47,-1.69 1.23,-2.13l0.51 -0.3c-1.08,-0.62 -1.74,-1.77 -1.74,-3.02l-0.51 0.3c-0.77,0.44 -1.71,0.44 -2.47,0l-12.72 -7.35c-0.46,-0.26 -0.9,-0.31 -1.23,-0.12l1.53 -0.88 12.42 7.17c0.76,0.44 1.7,0.44 2.47,0 0.32,-0.19 0.51,-0.6 0.51,-1.13l0 -14.69c0,-0.88 0.47,-1.69 1.23,-2.13l0.51 -0.3zm19.69 -32.34c-0.76,0.44 -1.23,1.26 -1.23,2.14 0,0.37 0.26,0.74 0.72,1l12.72 7.35c0.76,0.44 1.23,1.25 1.23,2.13l0 0.59c1.08,-0.62 2.41,-0.62 3.49,0l0 -0.59c0,-0.88 0.47,-1.69 1.23,-2.13l12.72 -7.35c0.46,-0.26 0.72,-0.63 0.72,-1 0,-0.88 -0.47,-1.7 -1.23,-2.14l-13.95 -8.05c-0.76,-0.44 -1.7,-0.44 -2.47,0l-13.95 8.05zm-0.51 43.42c-1.08,-0.63 -1.74,-1.78 -1.74,-3.02l-0.51 0.29c-0.77,0.44 -1.71,0.44 -2.47,0l-12.72 -7.34c-0.46,-0.27 -0.9,-0.31 -1.23,-0.12 -0.76,0.44 -1.23,1.25 -1.23,2.13l0 16.11c0,0.88 0.47,1.7 1.23,2.14l13.95 8.05c0.76,0.44 1.7,0.44 2.47,0 0.32,-0.19 0.51,-0.59 0.51,-1.13l0 -14.68c0,-0.88 0.47,-1.7 1.23,-2.14l0.51 -0.29zm14.46 7.17c0.77,0.44 1.71,0.44 2.47,0l13.95 -8.06c0.76,-0.44 1.23,-1.25 1.23,-2.13l0 -16.11c0,-0.88 -0.47,-1.7 -1.23,-2.14l-13.95 -8.05c-0.76,-0.44 -1.7,-0.44 -2.47,0l-13.95 8.05c-0.76,0.44 -1.23,1.26 -1.23,2.14l0 16.11c0,0.88 0.47,1.69 1.23,2.13l13.95 8.06zm0 22.14c0.77,0.45 1.71,0.45 2.47,0l13.95 -8.05c0.76,-0.44 1.23,-1.25 1.23,-2.13l0 -16.11c0,-0.89 -0.47,-1.7 -1.23,-2.14 -0.33,-0.19 -0.77,-0.14 -1.23,0.12l-12.72 7.35c-0.76,0.44 -1.7,0.44 -2.47,0l-12.71 -7.35c-0.47,-0.26 -0.91,-0.31 -1.24,-0.12 -0.76,0.44 -1.23,1.25 -1.23,2.14l0 16.11c0,0.88 0.47,1.69 1.23,2.13l13.95 8.05zm16.93 -29.31l0.51 0.29c0.77,0.44 1.24,1.26 1.24,2.14l0 14.68c0,0.54 0.18,0.94 0.51,1.13 0.76,0.44 1.7,0.44 2.46,0l13.95 -8.05c0.77,-0.44 1.24,-1.26 1.24,-2.14l0 -16.11c0,-0.88 -0.47,-1.69 -1.24,-2.13 -0.32,-0.19 -0.77,-0.15 -1.23,0.12l-12.72 7.34c-0.76,0.44 -1.7,0.44 -2.46,0l-0.51 -0.29c0,1.24 -0.67,2.39 -1.75,3.02zm-12.21 -29.2l12.72 7.34c0.77,0.44 1.24,1.26 1.24,2.14l0 14.68c0,0.54 0.18,0.94 0.51,1.13 0.76,0.44 1.7,0.44 2.46,0l13.95 -8.05c0.77,-0.44 1.24,-1.26 1.24,-2.14l0 -16.11c0,-0.88 -0.47,-1.69 -1.24,-2.13l-13.95 -8.06c-0.76,-0.44 -1.7,-0.44 -2.46,0l-13.95 8.06c-0.77,0.44 -1.24,1.25 -1.24,2.13 0,0.38 0.26,0.74 0.72,1.01z"/>
   <g>
    <path fill="#19C84B" d="M65.97 99.9l0 13.29c0,1.14 0.77,1.7 1.81,1.17l12.31 -7.11c0.76,-0.44 1.23,-1.25 1.23,-2.14l0 -14.08c0,-1.22 -0.86,-1.72 -1.92,-1.1l-11.51 6.64c-1.06,0.61 -1.92,2.1 -1.92,3.33z"/>
    <path id="1" fill="#80FF00" d="M69.21 99.9l0 9.91 8.88 -5.13 0 -10.28 -8.59 4.96c-0.02,0.02 -0.09,0.11 -0.17,0.26 -0.08,0.13 -0.12,0.23 -0.12,0.28zm-3.24 0l0 13.29c0,1.14 0.77,1.7 1.81,1.17l12.31 -7.11c0.76,-0.44 1.23,-1.25 1.23,-2.14l0 -14.08c0,-1.22 -0.86,-1.72 -1.92,-1.1l-11.51 6.64c-1.06,0.61 -1.92,2.1 -1.92,3.33z"/>
   </g>
   <g>
    <path fill="#19C84B" d="M65.97 122.05l0 13.29c0,1.14 0.77,1.7 1.81,1.17l12.31 -7.11c0.76,-0.44 1.23,-1.25 1.23,-2.14l0 -14.08c0,-1.22 -0.86,-1.72 -1.92,-1.1l-11.51 6.64c-1.06,0.61 -1.92,2.1 -1.92,3.33z"/>
    <path id="1" fill="#80FF00" d="M69.21 122.05l0 9.91 8.88 -5.13 0 -10.28 -8.59 4.96c-0.02,0.01 -0.09,0.11 -0.17,0.26 -0.08,0.13 -0.12,0.23 -0.12,0.28zm-3.24 0l0 13.29c0,1.14 0.77,1.7 1.81,1.17l12.31 -7.11c0.76,-0.44 1.23,-1.25 1.23,-2.14l0 -14.08c0,-1.22 -0.86,-1.72 -1.92,-1.1l-11.51 6.64c-1.06,0.61 -1.92,2.1 -1.92,3.33z"/>
   </g>
   <path fill="white" d="M85.16 110.97l0 13.29c0,1.14 0.76,1.7 1.8,1.17l12.31 -7.1c0.77,-0.44 1.24,-1.26 1.24,-2.14l0 -14.08c0,-1.22 -0.86,-1.72 -1.92,-1.11l-11.52 6.65c-1.05,0.61 -1.91,2.1 -1.91,3.32z"/>
   <g>
    <path fill="#19C84B" d="M85.16 66.67l0 13.29c0,1.14 0.76,1.7 1.8,1.17l12.31 -7.1c0.77,-0.44 1.24,-1.26 1.24,-2.14l0 -14.08c0,-1.22 -0.86,-1.72 -1.92,-1.11l-11.52 6.65c-1.05,0.61 -1.91,2.1 -1.91,3.32z"/>
    <path id="1" fill="#80FF00" d="M88.39 66.67l0 9.92 8.88 -5.13 0 -10.28 -8.59 4.96c-0.02,0.01 -0.09,0.11 -0.17,0.26 -0.08,0.13 -0.12,0.23 -0.12,0.27zm-3.23 0l0 13.29c0,1.14 0.76,1.7 1.8,1.17l12.31 -7.1c0.77,-0.44 1.24,-1.26 1.24,-2.14l0 -14.08c0,-1.22 -0.86,-1.72 -1.92,-1.11l-11.52 6.65c-1.05,0.61 -1.91,2.1 -1.91,3.32z"/>
   </g>
   <g>
    <path fill="#19C84B" d="M85.16 88.82l0 13.29c0,1.14 0.76,1.7 1.8,1.17l12.31 -7.1c0.77,-0.44 1.24,-1.26 1.24,-2.14l0 -14.08c0,-1.22 -0.86,-1.72 -1.92,-1.11l-11.52 6.65c-1.05,0.61 -1.91,2.1 -1.91,3.32z"/>
    <path id="1" fill="#80FF00" d="M88.39 88.82l0 9.92 8.88 -5.13 0 -10.28 -8.59 4.96c-0.02,0.01 -0.09,0.11 -0.17,0.26 -0.08,0.13 -0.12,0.23 -0.12,0.27zm-3.23 0l0 13.29c0,1.14 0.76,1.7 1.8,1.17l12.31 -7.1c0.77,-0.44 1.24,-1.26 1.24,-2.14l0 -14.08c0,-1.22 -0.86,-1.72 -1.92,-1.11l-11.52 6.65c-1.05,0.61 -1.91,2.1 -1.91,3.32z"/>
   </g>
   <g>
    <path fill="#19C84B" d="M104.34 55.6l0 13.29c0,1.14 0.76,1.7 1.81,1.17l12.3 -7.11c0.77,-0.44 1.24,-1.25 1.24,-2.13l0 -14.09c0,-1.22 -0.86,-1.71 -1.92,-1.1l-11.51 6.64c-1.06,0.61 -1.92,2.1 -1.92,3.33z"/>
    <path id="1" fill="#80FF00" d="M107.57 55.6l0 9.91 8.89 -5.13 0 -10.28 -8.6 4.96c-0.02,0.02 -0.08,0.11 -0.17,0.26 -0.07,0.13 -0.12,0.23 -0.12,0.28zm-3.23 0l0 13.29c0,1.14 0.76,1.7 1.81,1.17l12.3 -7.11c0.77,-0.44 1.24,-1.25 1.24,-2.13l0 -14.09c0,-1.22 -0.86,-1.71 -1.92,-1.1l-11.51 6.64c-1.06,0.61 -1.92,2.1 -1.92,3.33z"/>
   </g>
   <g>
    <path fill="#19C84B" d="M104.34 77.75l0 13.29c0,1.14 0.76,1.7 1.81,1.17l12.3 -7.11c0.77,-0.44 1.24,-1.25 1.24,-2.13l0 -14.09c0,-1.22 -0.86,-1.71 -1.92,-1.1l-11.51 6.64c-1.06,0.61 -1.92,2.1 -1.92,3.33z"/>
    <path id="1" fill="#80FF00" d="M107.57 77.75l0 9.91 8.89 -5.13 0 -10.28 -8.6 4.96c-0.02,0.02 -0.08,0.11 -0.17,0.26 -0.07,0.13 -0.12,0.23 -0.12,0.28zm-3.23 0l0 13.29c0,1.14 0.76,1.7 1.81,1.17l12.3 -7.11c0.77,-0.44 1.24,-1.25 1.24,-2.13l0 -14.09c0,-1.22 -0.86,-1.71 -1.92,-1.1l-11.51 6.64c-1.06,0.61 -1.92,2.1 -1.92,3.33z"/>
   </g>
   <g>
    <path fill="#19C84B" d="M104.34 99.9l0 13.29c0,1.14 0.76,1.7 1.81,1.17l12.3 -7.11c0.77,-0.44 1.24,-1.25 1.24,-2.14l0 -14.08c0,-1.22 -0.86,-1.72 -1.92,-1.1l-11.51 6.64c-1.06,0.61 -1.92,2.1 -1.92,3.33z"/>
    <path id="1" fill="#80FF00" d="M107.57 99.9l0 9.91 8.89 -5.13 0 -10.28 -8.6 4.96c-0.02,0.02 -0.08,0.11 -0.17,0.26 -0.07,0.13 -0.12,0.23 -0.12,0.28zm-3.23 0l0 13.29c0,1.14 0.76,1.7 1.81,1.17l12.3 -7.11c0.77,-0.44 1.24,-1.25 1.24,-2.14l0 -14.08c0,-1.22 -0.86,-1.72 -1.92,-1.1l-11.51 6.64c-1.06,0.61 -1.92,2.1 -1.92,3.33z"/>
   </g>
   <g>
    <path fill="#FF3232" d="M63.84 77.75l0 13.29c0,1.14 -0.77,1.7 -1.81,1.17l-12.31 -7.11c-0.76,-0.44 -1.23,-1.25 -1.23,-2.13l0 -14.09c0,-1.22 0.86,-1.71 1.92,-1.1l11.51 6.64c1.06,0.61 1.92,2.1 1.92,3.33z"/>
    <path id="1" fill="#FF6464" d="M63.84 77.75l0 13.29c0,1.14 -0.77,1.7 -1.81,1.17l-12.31 -7.11c-0.76,-0.44 -1.23,-1.25 -1.23,-2.13l0 -14.09c0,-1.22 0.86,-1.71 1.92,-1.1l11.51 6.64c1.06,0.61 1.92,2.1 1.92,3.33zm-3.23 9.91l0 -9.91c0,-0.05 -0.05,-0.15 -0.12,-0.28 -0.09,-0.15 -0.15,-0.24 -0.17,-0.26l-8.6 -4.96 0 10.28 8.89 5.13z"/>
   </g>
   <g>
    <path fill="#FF3232" d="M44.66 66.67l0 13.29c0,1.14 -0.77,1.7 -1.81,1.17l-12.31 -7.1c-0.76,-0.44 -1.23,-1.26 -1.23,-2.14l0 -14.08c0,-1.22 0.86,-1.72 1.92,-1.11l11.51 6.65c1.06,0.61 1.92,2.1 1.92,3.32z"/>
    <path id="1" fill="#FF6464" d="M44.66 66.67l0 13.29c0,1.14 -0.77,1.7 -1.81,1.17l-12.31 -7.1c-0.76,-0.44 -1.23,-1.26 -1.23,-2.14l0 -14.08c0,-1.22 0.86,-1.72 1.92,-1.11l11.51 6.65c1.06,0.61 1.92,2.1 1.92,3.32zm-3.23 9.92l0 -9.92c0,-0.04 -0.05,-0.14 -0.12,-0.27 -0.09,-0.15 -0.15,-0.25 -0.17,-0.26l-8.6 -4.96 0 10.28 8.89 5.13z"/>
   </g>
   <g>
    <path fill="#FF3232" d="M25.48 55.6l0 13.29c0,1.14 -0.77,1.7 -1.81,1.17l-12.31 -7.11c-0.76,-0.44 -1.23,-1.25 -1.23,-2.13l0 -14.09c0,-1.22 0.86,-1.71 1.91,-1.1l11.52 6.64c1.06,0.61 1.92,2.1 1.92,3.33z"/>
    <path id="1" fill="#FF6464" d="M25.48 55.6l0 13.29c0,1.14 -0.77,1.7 -1.81,1.17l-12.31 -7.11c-0.76,-0.44 -1.23,-1.25 -1.23,-2.13l0 -14.09c0,-1.22 0.86,-1.71 1.91,-1.1l11.52 6.64c1.06,0.61 1.92,2.1 1.92,3.33zm-3.24 9.91l0 -9.91c0,-0.05 -0.04,-0.15 -0.12,-0.28 -0.08,-0.15 -0.15,-0.24 -0.17,-0.26l-8.59 -4.96 0 10.28 8.88 5.13z"/>
   </g>
   <g>
    <path fill="#FF3232" d="M44.66 88.82l0 13.29c0,1.14 -0.77,1.7 -1.81,1.17l-12.31 -7.1c-0.76,-0.44 -1.23,-1.26 -1.23,-2.14l0 -14.08c0,-1.22 0.86,-1.72 1.92,-1.11l11.51 6.65c1.06,0.61 1.92,2.1 1.92,3.32z"/>
    <path id="1" fill="#FF6464" d="M44.66 88.82l0 13.29c0,1.14 -0.77,1.7 -1.81,1.17l-12.31 -7.1c-0.76,-0.44 -1.23,-1.26 -1.23,-2.14l0 -14.08c0,-1.22 0.86,-1.72 1.92,-1.11l11.51 6.65c1.06,0.61 1.92,2.1 1.92,3.32zm-3.23 9.92l0 -9.92c0,-0.04 -0.05,-0.14 -0.13,-0.27 -0.08,-0.15 -0.14,-0.25 -0.16,-0.26l-8.6 -4.96 0 10.28 8.89 5.13z"/>
   </g>
   <g>
    <path fill="#FF3232" d="M44.66 110.97l0 13.29c0,1.14 -0.77,1.7 -1.81,1.17l-12.31 -7.1c-0.76,-0.44 -1.23,-1.26 -1.23,-2.14l0 -14.08c0,-1.22 0.86,-1.72 1.92,-1.11l11.51 6.65c1.06,0.61 1.92,2.1 1.92,3.32z"/>
    <path id="1" fill="#FF6464" d="M44.66 110.97l0 13.29c0,1.14 -0.77,1.7 -1.81,1.17l-12.31 -7.1c-0.76,-0.44 -1.23,-1.26 -1.23,-2.14l0 -14.08c0,-1.22 0.86,-1.72 1.92,-1.11l11.51 6.65c1.06,0.61 1.92,2.1 1.92,3.32zm-3.23 9.92l0 -9.92c0,-0.04 -0.05,-0.15 -0.13,-0.27 -0.08,-0.15 -0.14,-0.25 -0.16,-0.26l-8.6 -4.96 0 10.28 8.89 5.13z"/>
   </g>
   <path fill="white" d="M25.48 77.75l0 13.29c0,1.14 -0.77,1.7 -1.81,1.17l-12.31 -7.11c-0.76,-0.44 -1.23,-1.25 -1.23,-2.13l0 -14.09c0,-1.22 0.86,-1.71 1.91,-1.1l11.52 6.64c1.06,0.61 1.92,2.1 1.92,3.33z"/>
   <path fill="white" d="M25.48 99.9l0 13.29c0,1.14 -0.77,1.7 -1.81,1.17l-12.31 -7.11c-0.76,-0.44 -1.23,-1.25 -1.23,-2.14l0 -14.08c0,-1.22 0.86,-1.72 1.91,-1.1l11.52 6.64c1.06,0.61 1.92,2.1 1.92,3.33z"/>
   <path fill="white" d="M63.84 99.9l0 13.29c0,1.14 -0.77,1.7 -1.81,1.17l-12.31 -7.11c-0.76,-0.44 -1.23,-1.25 -1.23,-2.14l0 -14.08c0,-1.22 0.86,-1.72 1.92,-1.1l11.51 6.64c1.06,0.61 1.92,2.1 1.92,3.33z"/>
   <path fill="white" d="M63.84 122.05l0 13.29c0,1.14 -0.77,1.7 -1.81,1.17l-12.31 -7.11c-0.76,-0.44 -1.23,-1.25 -1.23,-2.14l0 -14.08c0,-1.22 0.86,-1.72 1.92,-1.1l11.51 6.64c1.06,0.61 1.92,2.1 1.92,3.33z"/>
   <g>
    <path fill="#FFC800" d="M63.67 56.67l-12.2 7.04c-1.05,0.61 -1.05,1.61 0,2.22l11.51 6.64c1.06,0.61 2.78,0.61 3.84,0l11.51 -6.64c1.06,-0.61 1.06,-1.61 0,-2.22l-12.23 -7.06c-0.76,-0.42 -1.68,-0.41 -2.43,0.02z"/>
    <path id="1" fill="yellow" d="M64.91 59.68l-8.91 5.14 8.6 4.96 0 0.01c0.04,0 0.15,0.01 0.3,0.01 0.18,0 0.3,-0.01 0.32,-0.02l8.6 -4.96 -8.91 -5.14zm-1.24 -3.01l-12.2 7.04c-1.05,0.61 -1.05,1.61 0,2.22l11.51 6.64c1.06,0.61 2.78,0.61 3.84,0l11.51 -6.64c1.06,-0.61 1.06,-1.61 0,-2.22l-12.23 -7.06c-0.76,-0.42 -1.68,-0.41 -2.43,0.02z"/>
   </g>
   <path fill="white" d="M63.67 34.52l-12.2 7.04c-1.05,0.61 -1.05,1.61 0,2.22l11.51 6.64c1.06,0.62 2.78,0.62 3.84,0l11.51 -6.64c1.06,-0.61 1.06,-1.61 0,-2.22l-12.23 -7.06c-0.76,-0.42 -1.68,-0.41 -2.43,0.02z"/>
   <g>
    <path fill="#FFC800" d="M82.86 45.59l-12.21 7.05c-1.05,0.61 -1.05,1.6 0,2.21l11.52 6.65c1.06,0.61 2.77,0.61 3.83,0l11.52 -6.65c1.05,-0.61 1.05,-1.6 0,-2.21l-12.24 -7.07c-0.76,-0.42 -1.67,-0.41 -2.42,0.02z"/>
    <path id="1" fill="yellow" d="M84.09 48.6l-8.9 5.14 8.59 4.97 0 0c0.04,0.01 0.15,0.01 0.31,0.01 0.17,0 0.29,0 0.31,-0.01l8.6 -4.97 -8.91 -5.14zm-1.23 -3.01l-12.21 7.05c-1.05,0.61 -1.05,1.6 0,2.21l11.52 6.65c1.06,0.61 2.77,0.61 3.83,0l11.52 -6.65c1.05,-0.61 1.05,-1.6 0,-2.21l-12.24 -7.07c-0.76,-0.42 -1.67,-0.41 -2.42,0.02z"/>
   </g>
   <g>
    <path fill="#FFC800" d="M102.04 34.52l-12.2 7.04c-1.06,0.61 -1.06,1.61 0,2.22l11.51 6.64c1.06,0.62 2.78,0.62 3.84,0l11.51 -6.64c1.05,-0.61 1.05,-1.61 0,-2.22l-12.24 -7.06c-0.75,-0.42 -1.67,-0.41 -2.42,0.02z"/>
    <path id="1" fill="yellow" d="M103.27 37.53l-8.9 5.14 8.59 4.96 0 0.01c0.04,0.01 0.15,0.01 0.31,0.01 0.17,0 0.29,-0.01 0.31,-0.02l8.6 -4.96 -8.91 -5.14zm-1.23 -3.01l-12.2 7.04c-1.06,0.61 -1.06,1.61 0,2.22l11.51 6.64c1.06,0.62 2.78,0.62 3.84,0l11.51 -6.64c1.05,-0.61 1.05,-1.61 0,-2.22l-12.24 -7.06c-0.75,-0.42 -1.67,-0.41 -2.42,0.02z"/>
   </g>
   <g>
    <path fill="#FFC800" d="M82.86 23.44l-12.21 7.05c-1.05,0.61 -1.05,1.6 0,2.21l11.52 6.65c1.06,0.61 2.77,0.61 3.83,0l11.52 -6.65c1.05,-0.61 1.05,-1.6 0,-2.21l-12.24 -7.07c-0.76,-0.42 -1.67,-0.41 -2.42,0.02z"/>
    <path id="1" fill="yellow" d="M84.09 26.45l-8.9 5.14 8.59 4.97 0 0c0.04,0.01 0.15,0.01 0.3,0.01 0.18,0 0.3,0 0.32,-0.01l8.6 -4.97 -8.91 -5.14zm-1.23 -3.01l-12.21 7.05c-1.05,0.61 -1.05,1.6 0,2.21l11.52 6.65c1.06,0.61 2.77,0.61 3.83,0l11.52 -6.65c1.05,-0.61 1.05,-1.6 0,-2.21l-12.24 -7.07c-0.76,-0.42 -1.67,-0.41 -2.42,0.02z"/>
   </g>
   <g>
    <path fill="#FFC800" d="M51.48 19.41c-1.06,0.61 -1.06,1.61 0,2.21l11.51 6.65c1.06,0.61 2.78,0.61 3.84,0l11.51 -6.65c1.05,-0.6 1.05,-1.6 0,-2.21l-12.2 -7.04c-0.76,-0.44 -1.7,-0.44 -2.47,0l-12.19 7.04z"/>
    <path id="1" fill="yellow" d="M51.48 19.41c-1.06,0.61 -1.06,1.61 0,2.21l11.51 6.65c1.06,0.61 2.78,0.61 3.84,0l11.51 -6.65c1.05,-0.6 1.05,-1.6 0,-2.21l-12.2 -7.04c-0.76,-0.44 -1.7,-0.44 -2.47,0l-12.19 7.04zm4.52 1.1l8.61 4.97 -0.01 0c0.04,0.01 0.15,0.02 0.31,0.02 0.17,0 0.29,-0.01 0.31,-0.02l8.6 -4.96 -8.91 -5.15 -8.91 5.14z"/>
   </g>
   <g>
    <path fill="#FFC800" d="M32.29 30.48c-1.05,0.61 -1.05,1.61 0,2.22l11.52 6.65c1.06,0.61 2.77,0.61 3.83,0l11.52 -6.65c1.05,-0.61 1.05,-1.61 0,-2.22l-12.2 -7.04c-0.77,-0.44 -1.71,-0.44 -2.47,0l-12.2 7.04z"/>
    <path id="1" fill="yellow" d="M32.29 30.48c-1.05,0.61 -1.05,1.61 0,2.22l11.52 6.65c1.06,0.61 2.77,0.61 3.83,0l11.52 -6.65c1.05,-0.61 1.05,-1.61 0,-2.22l-12.2 -7.04c-0.77,-0.44 -1.71,-0.44 -2.47,0l-12.2 7.04zm4.53 1.11l8.6 4.97 0 0c0.04,0.01 0.15,0.01 0.31,0.01 0.17,0 0.29,0 0.31,-0.01l8.6 -4.97 -8.92 -5.14 -8.9 5.14z"/>
   </g>
   <g>
    <path fill="#FFC800" d="M13.11 41.56c-1.05,0.61 -1.05,1.6 0,2.21l11.51 6.65c1.06,0.61 2.78,0.61 3.84,0l11.51 -6.65c1.06,-0.61 1.06,-1.6 0,-2.21l-12.19 -7.04c-0.77,-0.44 -1.71,-0.44 -2.47,0l-12.2 7.04z"/>
    <path id="1" fill="yellow" d="M13.11 41.56c-1.05,0.61 -1.05,1.6 0,2.21l11.51 6.65c1.06,0.61 2.78,0.61 3.84,0l11.51 -6.65c1.06,-0.61 1.06,-1.6 0,-2.21l-12.19 -7.04c-0.77,-0.44 -1.71,-0.44 -2.47,0l-12.2 7.04zm4.53 1.1l8.6 4.97 0 0c0.04,0.01 0.15,0.02 0.3,0.02 0.18,0 0.3,-0.01 0.32,-0.02l8.6 -4.96 -8.92 -5.15 -8.9 5.14z"/>
   </g>
   <g>
    <path fill="#FFC800" d="M32.29 52.63c-1.05,0.61 -1.05,1.61 0,2.22l11.52 6.65c1.06,0.61 2.77,0.61 3.83,0l11.52 -6.65c1.05,-0.61 1.05,-1.61 0,-2.22l-12.2 -7.04c-0.77,-0.44 -1.71,-0.44 -2.47,0l-12.2 7.04z"/>
    <path id="1" fill="yellow" d="M32.29 52.63c-1.05,0.61 -1.05,1.61 0,2.22l11.52 6.65c1.06,0.61 2.77,0.61 3.83,0l11.52 -6.65c1.05,-0.61 1.05,-1.61 0,-2.22l-12.2 -7.04c-0.77,-0.44 -1.71,-0.44 -2.47,0l-12.2 7.04zm4.53 1.11l8.6 4.97 0 0c0.04,0.01 0.15,0.01 0.3,0.01 0.18,0 0.3,0 0.32,-0.01l8.6 -4.97 -8.92 -5.14 -8.9 5.14z"/>
   </g>
  </g>
 </g>
</svg>
